<?xml version="1.0" encoding="UTF-8" standalone="no"?>
<!DOCTYPE svg PUBLIC "-//W3C//DTD SVG 1.1//EN"
 "http://www.w3.org/Graphics/SVG/1.1/DTD/svg11.dtd">
<!-- Generated by graphviz version 11.0.0 (20240428.1522)
 -->
<!-- Title: ukb_ppp_eur_finemapping Pages: 1 -->
<svg width="498pt" height="69pt"
 viewBox="0.00 0.00 497.75 68.50" xmlns="http://www.w3.org/2000/svg" xmlns:xlink="http://www.w3.org/1999/xlink">
<g id="graph0" class="graph" transform="scale(1 1) rotate(0) translate(4 64.5)">
<title>ukb_ppp_eur_finemapping</title>
<polygon fill="white" stroke="none" points="-4,4 -4,-64.5 493.75,-64.5 493.75,4 -4,4"/>
<text text-anchor="middle" x="244.88" y="-43.2" font-family="Times,serif" font-size="14.00">ukb_ppp_eur_finemapping</text>
<!-- finemapping_batch_job -->
<g id="node1" class="node">
<title>finemapping_batch_job</title>
<path fill="#ffffff" stroke="#000000" d="M290,-36C290,-36 169,-36 169,-36 163,-36 157,-30 157,-24 157,-24 157,-12 157,-12 157,-6 163,0 169,0 169,0 290,0 290,0 296,0 302,-6 302,-12 302,-12 302,-24 302,-24 302,-30 296,-36 290,-36"/>
<text text-anchor="middle" x="229.5" y="-12.95" font-family="Times,serif" font-size="14.00">finemapping_batch_job</text>
</g>
<!-- move_finemapping_logs -->
<g id="node3" class="node">
<title>move_finemapping_logs</title>
<path fill="#f0eee4" stroke="#000000" d="M477.75,-36C477.75,-36 350,-36 350,-36 344,-36 338,-30 338,-24 338,-24 338,-12 338,-12 338,-6 344,0 350,0 350,0 477.75,0 477.75,0 483.75,0 489.75,-6 489.75,-12 489.75,-12 489.75,-24 489.75,-24 489.75,-30 483.75,-36 477.75,-36"/>
<text text-anchor="middle" x="413.88" y="-12.95" font-family="Times,serif" font-size="14.00">move_finemapping_logs</text>
</g>
<!-- finemapping_batch_job&#45;&gt;move_finemapping_logs -->
<g id="edge1" class="edge">
<title>finemapping_batch_job&#45;&gt;move_finemapping_logs</title>
<path fill="none" stroke="black" d="M302.32,-18C310.18,-18 318.24,-18 326.25,-18"/>
<polygon fill="black" stroke="black" points="326.01,-21.5 336.01,-18 326.01,-14.5 326.01,-21.5"/>
</g>
<!-- generate_manifests -->
<g id="node2" class="node">
<title>generate_manifests</title>
<path fill="#ffffff" stroke="#000000" d="M109,-36C109,-36 12,-36 12,-36 6,-36 0,-30 0,-24 0,-24 0,-12 0,-12 0,-6 6,0 12,0 12,0 109,0 109,0 115,0 121,-6 121,-12 121,-12 121,-24 121,-24 121,-30 115,-36 109,-36"/>
<text text-anchor="middle" x="60.5" y="-12.95" font-family="Times,serif" font-size="14.00">generate_manifests</text>
</g>
<!-- generate_manifests&#45;&gt;finemapping_batch_job -->
<g id="edge2" class="edge">
<title>generate_manifests&#45;&gt;finemapping_batch_job</title>
<path fill="none" stroke="black" d="M121.32,-18C129.08,-18 137.14,-18 145.19,-18"/>
<polygon fill="black" stroke="black" points="145.04,-21.5 155.04,-18 145.04,-14.5 145.04,-21.5"/>
</g>
</g>
</svg>
