<?xml version="1.0" encoding="UTF-8" standalone="no"?>
<!DOCTYPE svg PUBLIC "-//W3C//DTD SVG 1.1//EN"
 "http://www.w3.org/Graphics/SVG/1.1/DTD/svg11.dtd">
<!-- Generated by graphviz version 11.0.0 (20240428.1522)
 -->
<!-- Title: eqtl_catalogue_ingestion Pages: 1 -->
<svg width="625pt" height="123pt"
 viewBox="0.00 0.00 624.75 122.50" xmlns="http://www.w3.org/2000/svg" xmlns:xlink="http://www.w3.org/1999/xlink">
<g id="graph0" class="graph" transform="scale(1 1) rotate(0) translate(4 118.5)">
<title>eqtl_catalogue_ingestion</title>
<polygon fill="white" stroke="none" points="-4,4 -4,-118.5 620.75,-118.5 620.75,4 -4,4"/>
<text text-anchor="middle" x="308.38" y="-97.2" font-family="Times,serif" font-size="14.00">eqtl_catalogue_ingestion</text>
<!-- create_cluster -->
<g id="node1" class="node">
<title>create_cluster</title>
<path fill="#ffffff" stroke="#000000" d="M275.75,-63C275.75,-63 208.75,-63 208.75,-63 202.75,-63 196.75,-57 196.75,-51 196.75,-51 196.75,-39 196.75,-39 196.75,-33 202.75,-27 208.75,-27 208.75,-27 275.75,-27 275.75,-27 281.75,-27 287.75,-33 287.75,-39 287.75,-39 287.75,-51 287.75,-51 287.75,-57 281.75,-63 275.75,-63"/>
<text text-anchor="middle" x="242.25" y="-39.95" font-family="Times,serif" font-size="14.00">create_cluster</text>
</g>
<!-- eqtl_catalogue -->
<g id="node5" class="node">
<title>eqtl_catalogue</title>
<path fill="#ffffff" stroke="#000000" d="M406.5,-63C406.5,-63 335.75,-63 335.75,-63 329.75,-63 323.75,-57 323.75,-51 323.75,-51 323.75,-39 323.75,-39 323.75,-33 329.75,-27 335.75,-27 335.75,-27 406.5,-27 406.5,-27 412.5,-27 418.5,-33 418.5,-39 418.5,-39 418.5,-51 418.5,-51 418.5,-57 412.5,-63 406.5,-63"/>
<text text-anchor="middle" x="371.12" y="-39.95" font-family="Times,serif" font-size="14.00">eqtl_catalogue</text>
</g>
<!-- create_cluster&#45;&gt;eqtl_catalogue -->
<g id="edge1" class="edge">
<title>create_cluster&#45;&gt;eqtl_catalogue</title>
<path fill="none" stroke="black" d="M287.98,-45C295.84,-45 304.11,-45 312.27,-45"/>
<polygon fill="black" stroke="black" points="312.14,-48.5 322.14,-45 312.14,-41.5 312.14,-48.5"/>
</g>
<!-- decompress_susie_outputs -->
<g id="node2" class="node">
<title>decompress_susie_outputs</title>
<path fill="#0273d4" stroke="#000000" d="M148.75,-63C148.75,-63 12,-63 12,-63 6,-63 0,-57 0,-51 0,-51 0,-39 0,-39 0,-33 6,-27 12,-27 12,-27 148.75,-27 148.75,-27 154.75,-27 160.75,-33 160.75,-39 160.75,-39 160.75,-51 160.75,-51 160.75,-57 154.75,-63 148.75,-63"/>
<text text-anchor="middle" x="80.38" y="-39.95" font-family="Times,serif" font-size="14.00">decompress_susie_outputs</text>
</g>
<!-- decompress_susie_outputs&#45;&gt;create_cluster -->
<g id="edge2" class="edge">
<title>decompress_susie_outputs&#45;&gt;create_cluster</title>
<path fill="none" stroke="black" d="M160.84,-45C169.06,-45 177.28,-45 185.16,-45"/>
<polygon fill="black" stroke="black" points="184.91,-48.5 194.91,-45 184.91,-41.5 184.91,-48.5"/>
</g>
<!-- delete_cluster -->
<g id="node3" class="node">
<title>delete_cluster</title>
<path fill="#ffffff" stroke="#000000" d="M569.12,-90C569.12,-90 502.12,-90 502.12,-90 496.12,-90 490.12,-84 490.12,-78 490.12,-78 490.12,-66 490.12,-66 490.12,-60 496.12,-54 502.12,-54 502.12,-54 569.12,-54 569.12,-54 575.12,-54 581.12,-60 581.12,-66 581.12,-66 581.12,-78 581.12,-78 581.12,-84 575.12,-90 569.12,-90"/>
<text text-anchor="middle" x="535.62" y="-66.95" font-family="Times,serif" font-size="14.00">delete_cluster</text>
</g>
<!-- delete_decompressed_files -->
<g id="node4" class="node">
<title>delete_decompressed_files</title>
<path fill="#ffffff" stroke="#000000" d="M604.75,-36C604.75,-36 466.5,-36 466.5,-36 460.5,-36 454.5,-30 454.5,-24 454.5,-24 454.5,-12 454.5,-12 454.5,-6 460.5,0 466.5,0 466.5,0 604.75,0 604.75,0 610.75,0 616.75,-6 616.75,-12 616.75,-12 616.75,-24 616.75,-24 616.75,-30 610.75,-36 604.75,-36"/>
<text text-anchor="middle" x="535.62" y="-12.95" font-family="Times,serif" font-size="14.00">delete_decompressed_files</text>
</g>
<!-- eqtl_catalogue&#45;&gt;delete_cluster -->
<g id="edge3" class="edge">
<title>eqtl_catalogue&#45;&gt;delete_cluster</title>
<path fill="none" stroke="black" d="M418.69,-52.74C437.35,-55.84 459.01,-59.44 478.53,-62.68"/>
<polygon fill="black" stroke="black" points="477.8,-66.11 488.24,-64.29 478.95,-59.2 477.8,-66.11"/>
</g>
<!-- eqtl_catalogue&#45;&gt;delete_decompressed_files -->
<g id="edge4" class="edge">
<title>eqtl_catalogue&#45;&gt;delete_decompressed_files</title>
<path fill="none" stroke="black" d="M418.69,-37.26C426.45,-35.97 434.73,-34.6 443.16,-33.2"/>
<polygon fill="black" stroke="black" points="443.51,-36.69 452.8,-31.6 442.36,-29.78 443.51,-36.69"/>
</g>
</g>
</svg>
