<?xml version="1.0" encoding="UTF-8" standalone="no"?>
<!DOCTYPE svg PUBLIC "-//W3C//DTD SVG 1.1//EN"
 "http://www.w3.org/Graphics/SVG/1.1/DTD/svg11.dtd">
<!-- Generated by graphviz version 11.0.0 (20240428.1522)
 -->
<!-- Title: finngen_ingestion Pages: 1 -->
<svg width="451pt" height="123pt"
 viewBox="0.00 0.00 451.25 122.50" xmlns="http://www.w3.org/2000/svg" xmlns:xlink="http://www.w3.org/1999/xlink">
<g id="graph0" class="graph" transform="scale(1 1) rotate(0) translate(4 118.5)">
<title>finngen_ingestion</title>
<polygon fill="white" stroke="none" points="-4,4 -4,-118.5 447.25,-118.5 447.25,4 -4,4"/>
<text text-anchor="middle" x="221.62" y="-97.2" font-family="Times,serif" font-size="14.00">finngen_ingestion</text>
<!-- create_cluster -->
<g id="node1" class="node">
<title>create_cluster</title>
<path fill="#ffffff" stroke="#000000" d="M79,-63C79,-63 12,-63 12,-63 6,-63 0,-57 0,-51 0,-51 0,-39 0,-39 0,-33 6,-27 12,-27 12,-27 79,-27 79,-27 85,-27 91,-33 91,-39 91,-39 91,-51 91,-51 91,-57 85,-63 79,-63"/>
<text text-anchor="middle" x="45.5" y="-39.95" font-family="Times,serif" font-size="14.00">create_cluster</text>
</g>
<!-- finngen_finemapping_ingestion -->
<g id="node3" class="node">
<title>finngen_finemapping_ingestion</title>
<path fill="#ffffff" stroke="#000000" d="M304.25,-90C304.25,-90 139,-90 139,-90 133,-90 127,-84 127,-78 127,-78 127,-66 127,-66 127,-60 133,-54 139,-54 139,-54 304.25,-54 304.25,-54 310.25,-54 316.25,-60 316.25,-66 316.25,-66 316.25,-78 316.25,-78 316.25,-84 310.25,-90 304.25,-90"/>
<text text-anchor="middle" x="221.62" y="-66.95" font-family="Times,serif" font-size="14.00">finngen_finemapping_ingestion</text>
</g>
<!-- create_cluster&#45;&gt;finngen_finemapping_ingestion -->
<g id="edge1" class="edge">
<title>create_cluster&#45;&gt;finngen_finemapping_ingestion</title>
<path fill="none" stroke="black" d="M91.34,-51.95C98.98,-53.14 107.19,-54.41 115.63,-55.72"/>
<polygon fill="black" stroke="black" points="114.93,-59.15 125.34,-57.23 116,-52.23 114.93,-59.15"/>
</g>
<!-- finngen_studies -->
<g id="node4" class="node">
<title>finngen_studies</title>
<path fill="#ffffff" stroke="#000000" d="M260.38,-36C260.38,-36 182.88,-36 182.88,-36 176.88,-36 170.88,-30 170.88,-24 170.88,-24 170.88,-12 170.88,-12 170.88,-6 176.88,0 182.88,0 182.88,0 260.38,0 260.38,0 266.38,0 272.38,-6 272.38,-12 272.38,-12 272.38,-24 272.38,-24 272.38,-30 266.38,-36 260.38,-36"/>
<text text-anchor="middle" x="221.62" y="-12.95" font-family="Times,serif" font-size="14.00">finngen_studies</text>
</g>
<!-- create_cluster&#45;&gt;finngen_studies -->
<g id="edge2" class="edge">
<title>create_cluster&#45;&gt;finngen_studies</title>
<path fill="none" stroke="black" d="M91.34,-38.05C112.03,-34.84 136.92,-30.98 159.3,-27.51"/>
<polygon fill="black" stroke="black" points="159.57,-31.01 168.91,-26.02 158.49,-24.09 159.57,-31.01"/>
</g>
<!-- delete_cluster -->
<g id="node2" class="node">
<title>delete_cluster</title>
<path fill="#ffffff" stroke="#000000" d="M431.25,-63C431.25,-63 364.25,-63 364.25,-63 358.25,-63 352.25,-57 352.25,-51 352.25,-51 352.25,-39 352.25,-39 352.25,-33 358.25,-27 364.25,-27 364.25,-27 431.25,-27 431.25,-27 437.25,-27 443.25,-33 443.25,-39 443.25,-39 443.25,-51 443.25,-51 443.25,-57 437.25,-63 431.25,-63"/>
<text text-anchor="middle" x="397.75" y="-39.95" font-family="Times,serif" font-size="14.00">delete_cluster</text>
</g>
<!-- finngen_finemapping_ingestion&#45;&gt;delete_cluster -->
<g id="edge3" class="edge">
<title>finngen_finemapping_ingestion&#45;&gt;delete_cluster</title>
<path fill="none" stroke="black" d="M316.57,-57.43C324.88,-56.14 333.1,-54.87 340.94,-53.65"/>
<polygon fill="black" stroke="black" points="341.27,-57.15 350.61,-52.15 340.19,-50.23 341.27,-57.15"/>
</g>
<!-- finngen_studies&#45;&gt;delete_cluster -->
<g id="edge4" class="edge">
<title>finngen_studies&#45;&gt;delete_cluster</title>
<path fill="none" stroke="black" d="M272.52,-25.74C293.83,-29.04 318.8,-32.91 340.74,-36.31"/>
<polygon fill="black" stroke="black" points="339.98,-39.74 350.4,-37.81 341.06,-32.82 339.98,-39.74"/>
</g>
</g>
</svg>
