<?xml version="1.0" encoding="UTF-8" standalone="no"?>
<!DOCTYPE svg PUBLIC "-//W3C//DTD SVG 1.1//EN"
 "http://www.w3.org/Graphics/SVG/1.1/DTD/svg11.dtd">
<!-- Generated by graphviz version 11.0.0 (20240428.1522)
 -->
<!-- Title: gwas_catalog_sumstats_susie_clumping Pages: 1 -->
<svg width="611pt" height="69pt"
 viewBox="0.00 0.00 610.50 68.50" xmlns="http://www.w3.org/2000/svg" xmlns:xlink="http://www.w3.org/1999/xlink">
<g id="graph0" class="graph" transform="scale(1 1) rotate(0) translate(4 64.5)">
<title>gwas_catalog_sumstats_susie_clumping</title>
<polygon fill="white" stroke="none" points="-4,4 -4,-64.5 606.5,-64.5 606.5,4 -4,4"/>
<text text-anchor="middle" x="301.25" y="-43.2" font-family="Times,serif" font-size="14.00">gwas_catalog_sumstats_susie_clumping</text>
<!-- create_cluster -->
<g id="node1" class="node">
<title>create_cluster</title>
<path fill="#ffffff" stroke="#000000" d="M79,-36C79,-36 12,-36 12,-36 6,-36 0,-30 0,-24 0,-24 0,-12 0,-12 0,-6 6,0 12,0 12,0 79,0 79,0 85,0 91,-6 91,-12 91,-12 91,-24 91,-24 91,-30 85,-36 79,-36"/>
<text text-anchor="middle" x="45.5" y="-12.95" font-family="Times,serif" font-size="14.00">create_cluster</text>
</g>
<!-- gwas_catalog_study_index -->
<g id="node3" class="node">
<title>gwas_catalog_study_index</title>
<path fill="#ffffff" stroke="#000000" d="M277.25,-36C277.25,-36 139,-36 139,-36 133,-36 127,-30 127,-24 127,-24 127,-12 127,-12 127,-6 133,0 139,0 139,0 277.25,0 277.25,0 283.25,0 289.25,-6 289.25,-12 289.25,-12 289.25,-24 289.25,-24 289.25,-30 283.25,-36 277.25,-36"/>
<text text-anchor="middle" x="208.12" y="-12.95" font-family="Times,serif" font-size="14.00">gwas_catalog_study_index</text>
</g>
<!-- create_cluster&#45;&gt;gwas_catalog_study_index -->
<g id="edge1" class="edge">
<title>create_cluster&#45;&gt;gwas_catalog_study_index</title>
<path fill="none" stroke="black" d="M91.24,-18C98.84,-18 106.96,-18 115.26,-18"/>
<polygon fill="black" stroke="black" points="115.12,-21.5 125.12,-18 115.12,-14.5 115.12,-21.5"/>
</g>
<!-- delete_cluster -->
<g id="node2" class="node">
<title>delete_cluster</title>
<path fill="#ffffff" stroke="#000000" d="M590.5,-36C590.5,-36 523.5,-36 523.5,-36 517.5,-36 511.5,-30 511.5,-24 511.5,-24 511.5,-12 511.5,-12 511.5,-6 517.5,0 523.5,0 523.5,0 590.5,0 590.5,0 596.5,0 602.5,-6 602.5,-12 602.5,-12 602.5,-24 602.5,-24 602.5,-30 596.5,-36 590.5,-36"/>
<text text-anchor="middle" x="557" y="-12.95" font-family="Times,serif" font-size="14.00">delete_cluster</text>
</g>
<!-- locus_breaker_clumping -->
<g id="node4" class="node">
<title>locus_breaker_clumping</title>
<path fill="#ffffff" stroke="#000000" d="M463.5,-36C463.5,-36 337.25,-36 337.25,-36 331.25,-36 325.25,-30 325.25,-24 325.25,-24 325.25,-12 325.25,-12 325.25,-6 331.25,0 337.25,0 337.25,0 463.5,0 463.5,0 469.5,0 475.5,-6 475.5,-12 475.5,-12 475.5,-24 475.5,-24 475.5,-30 469.5,-36 463.5,-36"/>
<text text-anchor="middle" x="400.38" y="-12.95" font-family="Times,serif" font-size="14.00">locus_breaker_clumping</text>
</g>
<!-- gwas_catalog_study_index&#45;&gt;locus_breaker_clumping -->
<g id="edge2" class="edge">
<title>gwas_catalog_study_index&#45;&gt;locus_breaker_clumping</title>
<path fill="none" stroke="black" d="M289.53,-18C297.53,-18 305.67,-18 313.71,-18"/>
<polygon fill="black" stroke="black" points="313.49,-21.5 323.49,-18 313.49,-14.5 313.49,-21.5"/>
</g>
<!-- locus_breaker_clumping&#45;&gt;delete_cluster -->
<g id="edge3" class="edge">
<title>locus_breaker_clumping&#45;&gt;delete_cluster</title>
<path fill="none" stroke="black" d="M475.97,-18C483.97,-18 492.01,-18 499.74,-18"/>
<polygon fill="black" stroke="black" points="499.69,-21.5 509.69,-18 499.69,-14.5 499.69,-21.5"/>
</g>
</g>
</svg>
