<?xml version="1.0" encoding="UTF-8" standalone="no"?>
<!DOCTYPE svg PUBLIC "-//W3C//DTD SVG 1.1//EN"
 "http://www.w3.org/Graphics/SVG/1.1/DTD/svg11.dtd">
<!-- Generated by graphviz version 11.0.0 (20240428.1522)
 -->
<!-- Title: gwas_catalog_top_hits Pages: 1 -->
<svg width="802pt" height="126pt"
 viewBox="0.00 0.00 802.05 125.50" xmlns="http://www.w3.org/2000/svg" xmlns:xlink="http://www.w3.org/1999/xlink">
<g id="graph0" class="graph" transform="scale(1 1) rotate(0) translate(4 121.5)">
<title>gwas_catalog_top_hits</title>
<polygon fill="white" stroke="none" points="-4,4 -4,-121.5 798.05,-121.5 798.05,4 -4,4"/>
<text text-anchor="middle" x="397.02" y="-100.2" font-family="Times,serif" font-size="14.00">gwas_catalog_top_hits</text>
<g id="clust1" class="cluster">
<title>cluster_top_hits_processing</title>
<polygon fill="#6495ed" fill-opacity="0.498039" stroke="#000000" points="119,-8 119,-85 675.05,-85 675.05,-8 119,-8"/>
<text text-anchor="middle" x="397.02" y="-67.7" font-family="Times,serif" font-size="14.00">top_hits_processing</text>
</g>
<!-- create_cluster -->
<g id="node1" class="node">
<title>create_cluster</title>
<path fill="#ffffff" stroke="#000000" d="M79,-52C79,-52 12,-52 12,-52 6,-52 0,-46 0,-40 0,-40 0,-28 0,-28 0,-22 6,-16 12,-16 12,-16 79,-16 79,-16 85,-16 91,-22 91,-28 91,-28 91,-40 91,-40 91,-46 85,-52 79,-52"/>
<text text-anchor="middle" x="45.5" y="-28.95" font-family="Times,serif" font-size="14.00">create_cluster</text>
</g>
<!-- top_hits_processing.upstream_join_id -->
<g id="node3" class="node">
<title>top_hits_processing.upstream_join_id</title>
<ellipse fill="CornflowerBlue" stroke="#000000" cx="134.2" cy="-34" rx="7.2" ry="7.2"/>
</g>
<!-- create_cluster&#45;&gt;top_hits_processing.upstream_join_id -->
<g id="edge1" class="edge">
<title>create_cluster&#45;&gt;top_hits_processing.upstream_join_id</title>
<path fill="none" stroke="black" d="M91.37,-34C99.83,-34 108.22,-34 115.23,-34"/>
<polygon fill="black" stroke="black" points="115.18,-37.5 125.18,-34 115.18,-30.5 115.18,-37.5"/>
</g>
<!-- delete_cluster -->
<g id="node2" class="node">
<title>delete_cluster</title>
<path fill="#ffffff" stroke="#000000" d="M782.05,-52C782.05,-52 715.05,-52 715.05,-52 709.05,-52 703.05,-46 703.05,-40 703.05,-40 703.05,-28 703.05,-28 703.05,-22 709.05,-16 715.05,-16 715.05,-16 782.05,-16 782.05,-16 788.05,-16 794.05,-22 794.05,-28 794.05,-28 794.05,-40 794.05,-40 794.05,-46 788.05,-52 782.05,-52"/>
<text text-anchor="middle" x="748.55" y="-28.95" font-family="Times,serif" font-size="14.00">delete_cluster</text>
</g>
<!-- top_hits_processing.gwas_catalog_top_hit_ingestion -->
<g id="node5" class="node">
<title>top_hits_processing.gwas_catalog_top_hit_ingestion</title>
<path fill="#ffffff" stroke="#000000" d="M356.15,-52C356.15,-52 189.4,-52 189.4,-52 183.4,-52 177.4,-46 177.4,-40 177.4,-40 177.4,-28 177.4,-28 177.4,-22 183.4,-16 189.4,-16 189.4,-16 356.15,-16 356.15,-16 362.15,-16 368.15,-22 368.15,-28 368.15,-28 368.15,-40 368.15,-40 368.15,-46 362.15,-52 356.15,-52"/>
<text text-anchor="middle" x="272.77" y="-28.95" font-family="Times,serif" font-size="14.00">gwas_catalog_top_hit_ingestion</text>
</g>
<!-- top_hits_processing.upstream_join_id&#45;&gt;top_hits_processing.gwas_catalog_top_hit_ingestion -->
<g id="edge6" class="edge">
<title>top_hits_processing.upstream_join_id&#45;&gt;top_hits_processing.gwas_catalog_top_hit_ingestion</title>
<path fill="none" stroke="black" d="M141.79,-34C147.23,-34 155.66,-34 165.69,-34"/>
<polygon fill="black" stroke="black" points="165.61,-37.5 175.61,-34 165.61,-30.5 165.61,-37.5"/>
</g>
<!-- top_hits_processing.downstream_join_id -->
<g id="node4" class="node">
<title>top_hits_processing.downstream_join_id</title>
<ellipse fill="CornflowerBlue" stroke="#000000" cx="659.85" cy="-34" rx="7.2" ry="7.2"/>
</g>
<!-- top_hits_processing.downstream_join_id&#45;&gt;delete_cluster -->
<g id="edge2" class="edge">
<title>top_hits_processing.downstream_join_id&#45;&gt;delete_cluster</title>
<path fill="none" stroke="black" d="M667.37,-34C673.03,-34 681.84,-34 691.59,-34"/>
<polygon fill="black" stroke="black" points="691.35,-37.5 701.35,-34 691.35,-30.5 691.35,-37.5"/>
</g>
<!-- top_hits_processing.ld_based_clumping -->
<g id="node6" class="node">
<title>top_hits_processing.ld_based_clumping</title>
<path fill="#ffffff" stroke="#000000" d="M514.65,-52C514.65,-52 416.15,-52 416.15,-52 410.15,-52 404.15,-46 404.15,-40 404.15,-40 404.15,-28 404.15,-28 404.15,-22 410.15,-16 416.15,-16 416.15,-16 514.65,-16 514.65,-16 520.65,-16 526.65,-22 526.65,-28 526.65,-28 526.65,-40 526.65,-40 526.65,-46 520.65,-52 514.65,-52"/>
<text text-anchor="middle" x="465.4" y="-28.95" font-family="Times,serif" font-size="14.00">ld_based_clumping</text>
</g>
<!-- top_hits_processing.gwas_catalog_top_hit_ingestion&#45;&gt;top_hits_processing.ld_based_clumping -->
<g id="edge3" class="edge">
<title>top_hits_processing.gwas_catalog_top_hit_ingestion&#45;&gt;top_hits_processing.ld_based_clumping</title>
<path fill="none" stroke="black" d="M368.53,-34C376.56,-34 384.61,-34 392.42,-34"/>
<polygon fill="black" stroke="black" points="392.18,-37.5 402.18,-34 392.18,-30.5 392.18,-37.5"/>
</g>
<!-- top_hits_processing.pics -->
<g id="node7" class="node">
<title>top_hits_processing.pics</title>
<path fill="#ffffff" stroke="#000000" d="M604.65,-52C604.65,-52 574.65,-52 574.65,-52 568.65,-52 562.65,-46 562.65,-40 562.65,-40 562.65,-28 562.65,-28 562.65,-22 568.65,-16 574.65,-16 574.65,-16 604.65,-16 604.65,-16 610.65,-16 616.65,-22 616.65,-28 616.65,-28 616.65,-40 616.65,-40 616.65,-46 610.65,-52 604.65,-52"/>
<text text-anchor="middle" x="589.65" y="-28.95" font-family="Times,serif" font-size="14.00">pics</text>
</g>
<!-- top_hits_processing.ld_based_clumping&#45;&gt;top_hits_processing.pics -->
<g id="edge4" class="edge">
<title>top_hits_processing.ld_based_clumping&#45;&gt;top_hits_processing.pics</title>
<path fill="none" stroke="black" d="M526.81,-34C535.02,-34 543.25,-34 550.9,-34"/>
<polygon fill="black" stroke="black" points="550.85,-37.5 560.85,-34 550.85,-30.5 550.85,-37.5"/>
</g>
<!-- top_hits_processing.pics&#45;&gt;top_hits_processing.downstream_join_id -->
<g id="edge5" class="edge">
<title>top_hits_processing.pics&#45;&gt;top_hits_processing.downstream_join_id</title>
<path fill="none" stroke="black" d="M616.82,-34C624.9,-34 633.6,-34 640.98,-34"/>
<polygon fill="black" stroke="black" points="640.91,-37.5 650.91,-34 640.9,-30.5 640.91,-37.5"/>
</g>
</g>
</svg>
