<?xml version="1.0" encoding="UTF-8" standalone="no"?>
<!DOCTYPE svg PUBLIC "-//W3C//DTD SVG 1.1//EN"
 "http://www.w3.org/Graphics/SVG/1.1/DTD/svg11.dtd">
<!-- Generated by graphviz version 11.0.0 (20240428.1522)
 -->
<!-- Title: gwas_catalog_sumstats_pics Pages: 1 -->
<svg width="807pt" height="180pt"
 viewBox="0.00 0.00 806.55 179.50" xmlns="http://www.w3.org/2000/svg" xmlns:xlink="http://www.w3.org/1999/xlink">
<g id="graph0" class="graph" transform="scale(1 1) rotate(0) translate(4 175.5)">
<title>gwas_catalog_sumstats_pics</title>
<polygon fill="white" stroke="none" points="-4,4 -4,-175.5 802.55,-175.5 802.55,4 -4,4"/>
<text text-anchor="middle" x="399.28" y="-154.2" font-family="Times,serif" font-size="14.00">gwas_catalog_sumstats_pics</text>
<g id="clust1" class="cluster">
<title>cluster_summary_statistics_processing</title>
<polygon fill="#6495ed" fill-opacity="0.498039" stroke="#000000" points="119,-8 119,-139 679.55,-139 679.55,-8 119,-8"/>
<text text-anchor="middle" x="399.28" y="-121.7" font-family="Times,serif" font-size="14.00">summary_statistics_processing</text>
</g>
<!-- create_cluster -->
<g id="node1" class="node">
<title>create_cluster</title>
<path fill="#ffffff" stroke="#000000" d="M79,-74C79,-74 12,-74 12,-74 6,-74 0,-68 0,-62 0,-62 0,-50 0,-50 0,-44 6,-38 12,-38 12,-38 79,-38 79,-38 85,-38 91,-44 91,-50 91,-50 91,-62 91,-62 91,-68 85,-74 79,-74"/>
<text text-anchor="middle" x="45.5" y="-50.95" font-family="Times,serif" font-size="14.00">create_cluster</text>
</g>
<!-- summary_statistics_processing.upstream_join_id -->
<g id="node3" class="node">
<title>summary_statistics_processing.upstream_join_id</title>
<ellipse fill="CornflowerBlue" stroke="#000000" cx="134.2" cy="-56" rx="7.2" ry="7.2"/>
</g>
<!-- create_cluster&#45;&gt;summary_statistics_processing.upstream_join_id -->
<g id="edge1" class="edge">
<title>create_cluster&#45;&gt;summary_statistics_processing.upstream_join_id</title>
<path fill="none" stroke="black" d="M91.37,-56C99.83,-56 108.22,-56 115.23,-56"/>
<polygon fill="black" stroke="black" points="115.18,-59.5 125.18,-56 115.18,-52.5 115.18,-59.5"/>
</g>
<!-- delete_cluster -->
<g id="node2" class="node">
<title>delete_cluster</title>
<path fill="#ffffff" stroke="#000000" d="M786.55,-74C786.55,-74 719.55,-74 719.55,-74 713.55,-74 707.55,-68 707.55,-62 707.55,-62 707.55,-50 707.55,-50 707.55,-44 713.55,-38 719.55,-38 719.55,-38 786.55,-38 786.55,-38 792.55,-38 798.55,-44 798.55,-50 798.55,-50 798.55,-62 798.55,-62 798.55,-68 792.55,-74 786.55,-74"/>
<text text-anchor="middle" x="753.05" y="-50.95" font-family="Times,serif" font-size="14.00">delete_cluster</text>
</g>
<!-- summary_statistics_processing.gwas_catalog_study_index -->
<g id="node5" class="node">
<title>summary_statistics_processing.gwas_catalog_study_index</title>
<path fill="#ffffff" stroke="#000000" d="M519.15,-52C519.15,-52 380.9,-52 380.9,-52 374.9,-52 368.9,-46 368.9,-40 368.9,-40 368.9,-28 368.9,-28 368.9,-22 374.9,-16 380.9,-16 380.9,-16 519.15,-16 519.15,-16 525.15,-16 531.15,-22 531.15,-28 531.15,-28 531.15,-40 531.15,-40 531.15,-46 525.15,-52 519.15,-52"/>
<text text-anchor="middle" x="450.03" y="-28.95" font-family="Times,serif" font-size="14.00">gwas_catalog_study_index</text>
</g>
<!-- summary_statistics_processing.upstream_join_id&#45;&gt;summary_statistics_processing.gwas_catalog_study_index -->
<g id="edge6" class="edge">
<title>summary_statistics_processing.upstream_join_id&#45;&gt;summary_statistics_processing.gwas_catalog_study_index</title>
<path fill="none" stroke="black" d="M141.75,-55.54C169.2,-53.62 277.2,-46.05 357.44,-40.42"/>
<polygon fill="black" stroke="black" points="357.33,-43.94 367.06,-39.75 356.84,-36.95 357.33,-43.94"/>
</g>
<!-- summary_statistics_processing.window_based_clumping -->
<g id="node8" class="node">
<title>summary_statistics_processing.window_based_clumping</title>
<path fill="#ffffff" stroke="#000000" d="M320.9,-101C320.9,-101 189.4,-101 189.4,-101 183.4,-101 177.4,-95 177.4,-89 177.4,-89 177.4,-77 177.4,-77 177.4,-71 183.4,-65 189.4,-65 189.4,-65 320.9,-65 320.9,-65 326.9,-65 332.9,-71 332.9,-77 332.9,-77 332.9,-89 332.9,-89 332.9,-95 326.9,-101 320.9,-101"/>
<text text-anchor="middle" x="255.15" y="-77.95" font-family="Times,serif" font-size="14.00">window_based_clumping</text>
</g>
<!-- summary_statistics_processing.upstream_join_id&#45;&gt;summary_statistics_processing.window_based_clumping -->
<g id="edge7" class="edge">
<title>summary_statistics_processing.upstream_join_id&#45;&gt;summary_statistics_processing.window_based_clumping</title>
<path fill="none" stroke="black" d="M141.6,-57.45C147.11,-58.7 155.77,-60.67 165.9,-62.97"/>
<polygon fill="black" stroke="black" points="164.92,-66.33 175.44,-65.13 166.46,-59.51 164.92,-66.33"/>
</g>
<!-- summary_statistics_processing.downstream_join_id -->
<g id="node4" class="node">
<title>summary_statistics_processing.downstream_join_id</title>
<ellipse fill="CornflowerBlue" stroke="#000000" cx="664.35" cy="-56" rx="7.2" ry="7.2"/>
</g>
<!-- summary_statistics_processing.downstream_join_id&#45;&gt;delete_cluster -->
<g id="edge2" class="edge">
<title>summary_statistics_processing.downstream_join_id&#45;&gt;delete_cluster</title>
<path fill="none" stroke="black" d="M671.87,-56C677.53,-56 686.34,-56 696.09,-56"/>
<polygon fill="black" stroke="black" points="695.85,-59.5 705.85,-56 695.85,-52.5 695.85,-59.5"/>
</g>
<!-- summary_statistics_processing.gwas_catalog_study_index&#45;&gt;summary_statistics_processing.downstream_join_id -->
<g id="edge3" class="edge">
<title>summary_statistics_processing.gwas_catalog_study_index&#45;&gt;summary_statistics_processing.downstream_join_id</title>
<path fill="none" stroke="black" d="M531.6,-42.35C573.36,-46.68 620.75,-51.59 645.74,-54.18"/>
<polygon fill="black" stroke="black" points="645.08,-57.63 655.38,-55.17 645.8,-50.66 645.08,-57.63"/>
</g>
<!-- summary_statistics_processing.ld_based_clumping -->
<g id="node6" class="node">
<title>summary_statistics_processing.ld_based_clumping</title>
<path fill="#ffffff" stroke="#000000" d="M499.28,-106C499.28,-106 400.78,-106 400.78,-106 394.78,-106 388.78,-100 388.78,-94 388.78,-94 388.78,-82 388.78,-82 388.78,-76 394.78,-70 400.78,-70 400.78,-70 499.28,-70 499.28,-70 505.28,-70 511.28,-76 511.28,-82 511.28,-82 511.28,-94 511.28,-94 511.28,-100 505.28,-106 499.28,-106"/>
<text text-anchor="middle" x="450.03" y="-82.95" font-family="Times,serif" font-size="14.00">ld_based_clumping</text>
</g>
<!-- summary_statistics_processing.pics -->
<g id="node7" class="node">
<title>summary_statistics_processing.pics</title>
<path fill="#ffffff" stroke="#000000" d="M609.15,-101C609.15,-101 579.15,-101 579.15,-101 573.15,-101 567.15,-95 567.15,-89 567.15,-89 567.15,-77 567.15,-77 567.15,-71 573.15,-65 579.15,-65 579.15,-65 609.15,-65 609.15,-65 615.15,-65 621.15,-71 621.15,-77 621.15,-77 621.15,-89 621.15,-89 621.15,-95 615.15,-101 609.15,-101"/>
<text text-anchor="middle" x="594.15" y="-77.95" font-family="Times,serif" font-size="14.00">pics</text>
</g>
<!-- summary_statistics_processing.ld_based_clumping&#45;&gt;summary_statistics_processing.pics -->
<g id="edge4" class="edge">
<title>summary_statistics_processing.ld_based_clumping&#45;&gt;summary_statistics_processing.pics</title>
<path fill="none" stroke="black" d="M511.71,-85.87C526.65,-85.34 542.21,-84.79 555.68,-84.32"/>
<polygon fill="black" stroke="black" points="555.53,-87.83 565.4,-83.98 555.29,-80.83 555.53,-87.83"/>
</g>
<!-- summary_statistics_processing.pics&#45;&gt;summary_statistics_processing.downstream_join_id -->
<g id="edge5" class="edge">
<title>summary_statistics_processing.pics&#45;&gt;summary_statistics_processing.downstream_join_id</title>
<path fill="none" stroke="black" d="M621.32,-72.64C629.8,-69.28 638.97,-65.65 646.57,-62.64"/>
<polygon fill="black" stroke="black" points="647.78,-65.93 655.79,-58.99 645.21,-59.42 647.78,-65.93"/>
</g>
<!-- summary_statistics_processing.window_based_clumping&#45;&gt;summary_statistics_processing.ld_based_clumping -->
<g id="edge8" class="edge">
<title>summary_statistics_processing.window_based_clumping&#45;&gt;summary_statistics_processing.ld_based_clumping</title>
<path fill="none" stroke="black" d="M333.21,-85C347.7,-85.37 362.8,-85.76 377.12,-86.14"/>
<polygon fill="black" stroke="black" points="376.82,-89.63 386.9,-86.39 377,-82.63 376.82,-89.63"/>
</g>
</g>
</svg>
