<?xml version="1.0" encoding="UTF-8" standalone="no"?>
<!DOCTYPE svg PUBLIC "-//W3C//DTD SVG 1.1//EN"
 "http://www.w3.org/Graphics/SVG/1.1/DTD/svg11.dtd">
<!-- Generated by graphviz version 11.0.0 (20240428.1522)
 -->
<!-- Title: eqtl_preprocess Pages: 1 -->
<svg width="804pt" height="123pt"
 viewBox="0.00 0.00 804.25 122.50" xmlns="http://www.w3.org/2000/svg" xmlns:xlink="http://www.w3.org/1999/xlink">
<g id="graph0" class="graph" transform="scale(1 1) rotate(0) translate(4 118.5)">
<title>eqtl_preprocess</title>
<polygon fill="white" stroke="none" points="-4,4 -4,-118.5 800.25,-118.5 800.25,4 -4,4"/>
<text text-anchor="middle" x="398.12" y="-97.2" font-family="Times,serif" font-size="14.00">eqtl_preprocess</text>
<!-- create_cluster -->
<g id="node1" class="node">
<title>create_cluster</title>
<path fill="#ffffff" stroke="#000000" d="M275.75,-63C275.75,-63 208.75,-63 208.75,-63 202.75,-63 196.75,-57 196.75,-51 196.75,-51 196.75,-39 196.75,-39 196.75,-33 202.75,-27 208.75,-27 208.75,-27 275.75,-27 275.75,-27 281.75,-27 287.75,-33 287.75,-39 287.75,-39 287.75,-51 287.75,-51 287.75,-57 281.75,-63 275.75,-63"/>
<text text-anchor="middle" x="242.25" y="-39.95" font-family="Times,serif" font-size="14.00">create_cluster</text>
</g>
<!-- install_dependencies -->
<g id="node5" class="node">
<title>install_dependencies</title>
<path fill="#ffffff" stroke="#000000" d="M440.25,-63C440.25,-63 335.75,-63 335.75,-63 329.75,-63 323.75,-57 323.75,-51 323.75,-51 323.75,-39 323.75,-39 323.75,-33 329.75,-27 335.75,-27 335.75,-27 440.25,-27 440.25,-27 446.25,-27 452.25,-33 452.25,-39 452.25,-39 452.25,-51 452.25,-51 452.25,-57 446.25,-63 440.25,-63"/>
<text text-anchor="middle" x="388" y="-39.95" font-family="Times,serif" font-size="14.00">install_dependencies</text>
</g>
<!-- create_cluster&#45;&gt;install_dependencies -->
<g id="edge1" class="edge">
<title>create_cluster&#45;&gt;install_dependencies</title>
<path fill="none" stroke="black" d="M287.95,-45C295.65,-45 303.85,-45 312.09,-45"/>
<polygon fill="black" stroke="black" points="311.82,-48.5 321.82,-45 311.82,-41.5 311.82,-48.5"/>
</g>
<!-- decompress_susie_outputs -->
<g id="node2" class="node">
<title>decompress_susie_outputs</title>
<path fill="#0273d4" stroke="#000000" d="M148.75,-63C148.75,-63 12,-63 12,-63 6,-63 0,-57 0,-51 0,-51 0,-39 0,-39 0,-33 6,-27 12,-27 12,-27 148.75,-27 148.75,-27 154.75,-27 160.75,-33 160.75,-39 160.75,-39 160.75,-51 160.75,-51 160.75,-57 154.75,-63 148.75,-63"/>
<text text-anchor="middle" x="80.38" y="-39.95" font-family="Times,serif" font-size="14.00">decompress_susie_outputs</text>
</g>
<!-- decompress_susie_outputs&#45;&gt;create_cluster -->
<g id="edge2" class="edge">
<title>decompress_susie_outputs&#45;&gt;create_cluster</title>
<path fill="none" stroke="black" d="M160.84,-45C169.06,-45 177.28,-45 185.16,-45"/>
<polygon fill="black" stroke="black" points="184.91,-48.5 194.91,-45 184.91,-41.5 184.91,-48.5"/>
</g>
<!-- delete_cluster -->
<g id="node3" class="node">
<title>delete_cluster</title>
<path fill="#ffffff" stroke="#000000" d="M748.62,-90C748.62,-90 681.62,-90 681.62,-90 675.62,-90 669.62,-84 669.62,-78 669.62,-78 669.62,-66 669.62,-66 669.62,-60 675.62,-54 681.62,-54 681.62,-54 748.62,-54 748.62,-54 754.62,-54 760.62,-60 760.62,-66 760.62,-66 760.62,-78 760.62,-78 760.62,-84 754.62,-90 748.62,-90"/>
<text text-anchor="middle" x="715.12" y="-66.95" font-family="Times,serif" font-size="14.00">delete_cluster</text>
</g>
<!-- delete_decompressed_files -->
<g id="node4" class="node">
<title>delete_decompressed_files</title>
<path fill="#ffffff" stroke="#000000" d="M784.25,-36C784.25,-36 646,-36 646,-36 640,-36 634,-30 634,-24 634,-24 634,-12 634,-12 634,-6 640,0 646,0 646,0 784.25,0 784.25,0 790.25,0 796.25,-6 796.25,-12 796.25,-12 796.25,-24 796.25,-24 796.25,-30 790.25,-36 784.25,-36"/>
<text text-anchor="middle" x="715.12" y="-12.95" font-family="Times,serif" font-size="14.00">delete_decompressed_files</text>
</g>
<!-- ot_eqtl_ingestion -->
<g id="node6" class="node">
<title>ot_eqtl_ingestion</title>
<path fill="#ffffff" stroke="#000000" d="M586,-63C586,-63 500.25,-63 500.25,-63 494.25,-63 488.25,-57 488.25,-51 488.25,-51 488.25,-39 488.25,-39 488.25,-33 494.25,-27 500.25,-27 500.25,-27 586,-27 586,-27 592,-27 598,-33 598,-39 598,-39 598,-51 598,-51 598,-57 592,-63 586,-63"/>
<text text-anchor="middle" x="543.12" y="-39.95" font-family="Times,serif" font-size="14.00">ot_eqtl_ingestion</text>
</g>
<!-- install_dependencies&#45;&gt;ot_eqtl_ingestion -->
<g id="edge3" class="edge">
<title>install_dependencies&#45;&gt;ot_eqtl_ingestion</title>
<path fill="none" stroke="black" d="M452.61,-45C460.65,-45 468.89,-45 476.96,-45"/>
<polygon fill="black" stroke="black" points="476.69,-48.5 486.69,-45 476.69,-41.5 476.69,-48.5"/>
</g>
<!-- ot_eqtl_ingestion&#45;&gt;delete_cluster -->
<g id="edge4" class="edge">
<title>ot_eqtl_ingestion&#45;&gt;delete_cluster</title>
<path fill="none" stroke="black" d="M598.38,-53.62C617.38,-56.63 638.75,-60.03 657.91,-63.07"/>
<polygon fill="black" stroke="black" points="657.28,-66.52 667.7,-64.63 658.38,-59.6 657.28,-66.52"/>
</g>
<!-- ot_eqtl_ingestion&#45;&gt;delete_decompressed_files -->
<g id="edge5" class="edge">
<title>ot_eqtl_ingestion&#45;&gt;delete_decompressed_files</title>
<path fill="none" stroke="black" d="M598.38,-36.38C606.13,-35.15 614.27,-33.86 622.5,-32.55"/>
<polygon fill="black" stroke="black" points="622.92,-36.03 632.25,-31 621.82,-29.12 622.92,-36.03"/>
</g>
</g>
</svg>
