<?xml version="1.0" encoding="UTF-8" standalone="no"?>
<!DOCTYPE svg PUBLIC "-//W3C//DTD SVG 1.1//EN"
 "http://www.w3.org/Graphics/SVG/1.1/DTD/svg11.dtd">
<!-- Generated by graphviz version 11.0.0 (20240428.1522)
 -->
<!-- Title: finngen_harmonisation Pages: 1 -->
<svg width="659pt" height="69pt"
 viewBox="0.00 0.00 658.75 68.50" xmlns="http://www.w3.org/2000/svg" xmlns:xlink="http://www.w3.org/1999/xlink">
<g id="graph0" class="graph" transform="scale(1 1) rotate(0) translate(4 64.5)">
<title>finngen_harmonisation</title>
<polygon fill="white" stroke="none" points="-4,4 -4,-64.5 654.75,-64.5 654.75,4 -4,4"/>
<text text-anchor="middle" x="325.38" y="-43.2" font-family="Times,serif" font-size="14.00">finngen_harmonisation</text>
<!-- create_cluster -->
<g id="node1" class="node">
<title>create_cluster</title>
<path fill="#ffffff" stroke="#000000" d="M228.5,-36C228.5,-36 161.5,-36 161.5,-36 155.5,-36 149.5,-30 149.5,-24 149.5,-24 149.5,-12 149.5,-12 149.5,-6 155.5,0 161.5,0 161.5,0 228.5,0 228.5,0 234.5,0 240.5,-6 240.5,-12 240.5,-12 240.5,-24 240.5,-24 240.5,-30 234.5,-36 228.5,-36"/>
<text text-anchor="middle" x="195" y="-12.95" font-family="Times,serif" font-size="14.00">create_cluster</text>
</g>
<!-- install_dependencies -->
<g id="node3" class="node">
<title>install_dependencies</title>
<path fill="#ffffff" stroke="#000000" d="M393,-36C393,-36 288.5,-36 288.5,-36 282.5,-36 276.5,-30 276.5,-24 276.5,-24 276.5,-12 276.5,-12 276.5,-6 282.5,0 288.5,0 288.5,0 393,0 393,0 399,0 405,-6 405,-12 405,-12 405,-24 405,-24 405,-30 399,-36 393,-36"/>
<text text-anchor="middle" x="340.75" y="-12.95" font-family="Times,serif" font-size="14.00">install_dependencies</text>
</g>
<!-- create_cluster&#45;&gt;install_dependencies -->
<g id="edge1" class="edge">
<title>create_cluster&#45;&gt;install_dependencies</title>
<path fill="none" stroke="black" d="M240.7,-18C248.4,-18 256.6,-18 264.84,-18"/>
<polygon fill="black" stroke="black" points="264.57,-21.5 274.57,-18 264.57,-14.5 264.57,-21.5"/>
</g>
<!-- delete_cluster -->
<g id="node2" class="node">
<title>delete_cluster</title>
<path fill="#ffffff" stroke="#000000" d="M638.75,-36C638.75,-36 571.75,-36 571.75,-36 565.75,-36 559.75,-30 559.75,-24 559.75,-24 559.75,-12 559.75,-12 559.75,-6 565.75,0 571.75,0 571.75,0 638.75,0 638.75,0 644.75,0 650.75,-6 650.75,-12 650.75,-12 650.75,-24 650.75,-24 650.75,-30 644.75,-36 638.75,-36"/>
<text text-anchor="middle" x="605.25" y="-12.95" font-family="Times,serif" font-size="14.00">delete_cluster</text>
</g>
<!-- submit_jobs -->
<g id="node5" class="node">
<title>submit_jobs</title>
<path fill="#ffefeb" stroke="#000000" d="M511.75,-36C511.75,-36 453,-36 453,-36 447,-36 441,-30 441,-24 441,-24 441,-12 441,-12 441,-6 447,0 453,0 453,0 511.75,0 511.75,0 517.75,0 523.75,-6 523.75,-12 523.75,-12 523.75,-24 523.75,-24 523.75,-30 517.75,-36 511.75,-36"/>
<text text-anchor="middle" x="482.38" y="-12.95" font-family="Times,serif" font-size="14.00">submit_jobs</text>
</g>
<!-- install_dependencies&#45;&gt;submit_jobs -->
<g id="edge2" class="edge">
<title>install_dependencies&#45;&gt;submit_jobs</title>
<path fill="none" stroke="black" d="M405.43,-18C413.36,-18 421.4,-18 429.12,-18"/>
<polygon fill="black" stroke="black" points="429.05,-21.5 439.05,-18 429.05,-14.5 429.05,-21.5"/>
</g>
<!-- list_raw_sumstats -->
<g id="node4" class="node">
<title>list_raw_sumstats</title>
<path fill="#f0eee4" stroke="#000000" d="M101.5,-36C101.5,-36 12,-36 12,-36 6,-36 0,-30 0,-24 0,-24 0,-12 0,-12 0,-6 6,0 12,0 12,0 101.5,0 101.5,0 107.5,0 113.5,-6 113.5,-12 113.5,-12 113.5,-24 113.5,-24 113.5,-30 107.5,-36 101.5,-36"/>
<text text-anchor="middle" x="56.75" y="-12.95" font-family="Times,serif" font-size="14.00">list_raw_sumstats</text>
</g>
<!-- list_raw_sumstats&#45;&gt;create_cluster -->
<g id="edge3" class="edge">
<title>list_raw_sumstats&#45;&gt;create_cluster</title>
<path fill="none" stroke="black" d="M113.95,-18C121.83,-18 129.93,-18 137.81,-18"/>
<polygon fill="black" stroke="black" points="137.64,-21.5 147.64,-18 137.64,-14.5 137.64,-21.5"/>
</g>
<!-- submit_jobs&#45;&gt;delete_cluster -->
<g id="edge4" class="edge">
<title>submit_jobs&#45;&gt;delete_cluster</title>
<path fill="none" stroke="black" d="M523.96,-18C531.7,-18 539.93,-18 548.05,-18"/>
<polygon fill="black" stroke="black" points="547.89,-21.5 557.89,-18 547.89,-14.5 547.89,-21.5"/>
</g>
</g>
</svg>
