<?xml version="1.0" encoding="UTF-8" standalone="no"?>
<!DOCTYPE svg PUBLIC "-//W3C//DTD SVG 1.1//EN"
 "http://www.w3.org/Graphics/SVG/1.1/DTD/svg11.dtd">
<!-- Generated by graphviz version 11.0.0 (20240428.1522)
 -->
<!-- Title: finngen_preprocess Pages: 1 -->
<svg width="804pt" height="162pt"
 viewBox="0.00 0.00 803.65 161.50" xmlns="http://www.w3.org/2000/svg" xmlns:xlink="http://www.w3.org/1999/xlink">
<g id="graph0" class="graph" transform="scale(1 1) rotate(0) translate(4 157.5)">
<title>finngen_preprocess</title>
<polygon fill="white" stroke="none" points="-4,4 -4,-157.5 799.65,-157.5 799.65,4 -4,4"/>
<text text-anchor="middle" x="397.82" y="-136.2" font-family="Times,serif" font-size="14.00">finngen_preprocess</text>
<g id="clust1" class="cluster">
<title>cluster_finngen_summary_stats_preprocess</title>
<polygon fill="#6495ed" fill-opacity="0.498039" stroke="#000000" points="283.5,-44 283.5,-121 589.22,-121 589.22,-44 283.5,-44"/>
<text text-anchor="middle" x="436.36" y="-103.7" font-family="Times,serif" font-size="14.00">finngen_summary_stats_preprocess</text>
</g>
<!-- create_cluster -->
<g id="node1" class="node">
<title>create_cluster</title>
<path fill="#ffffff" stroke="#000000" d="M79,-58C79,-58 12,-58 12,-58 6,-58 0,-52 0,-46 0,-46 0,-34 0,-34 0,-28 6,-22 12,-22 12,-22 79,-22 79,-22 85,-22 91,-28 91,-34 91,-34 91,-46 91,-46 91,-52 85,-58 79,-58"/>
<text text-anchor="middle" x="45.5" y="-34.95" font-family="Times,serif" font-size="14.00">create_cluster</text>
</g>
<!-- install_dependencies -->
<g id="node7" class="node">
<title>install_dependencies</title>
<path fill="#ffffff" stroke="#000000" d="M243.5,-58C243.5,-58 139,-58 139,-58 133,-58 127,-52 127,-46 127,-46 127,-34 127,-34 127,-28 133,-22 139,-22 139,-22 243.5,-22 243.5,-22 249.5,-22 255.5,-28 255.5,-34 255.5,-34 255.5,-46 255.5,-46 255.5,-52 249.5,-58 243.5,-58"/>
<text text-anchor="middle" x="191.25" y="-34.95" font-family="Times,serif" font-size="14.00">install_dependencies</text>
</g>
<!-- create_cluster&#45;&gt;install_dependencies -->
<g id="edge1" class="edge">
<title>create_cluster&#45;&gt;install_dependencies</title>
<path fill="none" stroke="black" d="M91.2,-40C98.9,-40 107.1,-40 115.34,-40"/>
<polygon fill="black" stroke="black" points="115.07,-43.5 125.07,-40 115.07,-36.5 115.07,-43.5"/>
</g>
<!-- delete_cluster -->
<g id="node2" class="node">
<title>delete_cluster</title>
<path fill="#ffffff" stroke="#000000" d="M783.65,-57C783.65,-57 716.65,-57 716.65,-57 710.65,-57 704.65,-51 704.65,-45 704.65,-45 704.65,-33 704.65,-33 704.65,-27 710.65,-21 716.65,-21 716.65,-21 783.65,-21 783.65,-21 789.65,-21 795.65,-27 795.65,-33 795.65,-33 795.65,-45 795.65,-45 795.65,-51 789.65,-57 783.65,-57"/>
<text text-anchor="middle" x="750.15" y="-33.95" font-family="Times,serif" font-size="14.00">delete_cluster</text>
</g>
<!-- finngen_finemapping_ingestion -->
<g id="node3" class="node">
<title>finngen_finemapping_ingestion</title>
<path fill="#ffffff" stroke="#000000" d="M656.65,-36C656.65,-36 491.4,-36 491.4,-36 485.4,-36 479.4,-30 479.4,-24 479.4,-24 479.4,-12 479.4,-12 479.4,-6 485.4,0 491.4,0 491.4,0 656.65,0 656.65,0 662.65,0 668.65,-6 668.65,-12 668.65,-12 668.65,-24 668.65,-24 668.65,-30 662.65,-36 656.65,-36"/>
<text text-anchor="middle" x="574.02" y="-12.95" font-family="Times,serif" font-size="14.00">finngen_finemapping_ingestion</text>
</g>
<!-- finngen_finemapping_ingestion&#45;&gt;delete_cluster -->
<g id="edge2" class="edge">
<title>finngen_finemapping_ingestion&#45;&gt;delete_cluster</title>
<path fill="none" stroke="black" d="M668.97,-29.33C677.28,-30.33 685.5,-31.32 693.34,-32.27"/>
<polygon fill="black" stroke="black" points="692.66,-35.71 703,-33.43 693.5,-28.76 692.66,-35.71"/>
</g>
<!-- finngen_summary_stats_preprocess.upstream_join_id -->
<g id="node4" class="node">
<title>finngen_summary_stats_preprocess.upstream_join_id</title>
<ellipse fill="CornflowerBlue" stroke="#000000" cx="298.7" cy="-64" rx="7.2" ry="7.2"/>
</g>
<!-- finngen_summary_stats_preprocess.finngen_studies -->
<g id="node6" class="node">
<title>finngen_summary_stats_preprocess.finngen_studies</title>
<path fill="#ffffff" stroke="#000000" d="M431.4,-88C431.4,-88 353.9,-88 353.9,-88 347.9,-88 341.9,-82 341.9,-76 341.9,-76 341.9,-64 341.9,-64 341.9,-58 347.9,-52 353.9,-52 353.9,-52 431.4,-52 431.4,-52 437.4,-52 443.4,-58 443.4,-64 443.4,-64 443.4,-76 443.4,-76 443.4,-82 437.4,-88 431.4,-88"/>
<text text-anchor="middle" x="392.65" y="-64.95" font-family="Times,serif" font-size="14.00">finngen_studies</text>
</g>
<!-- finngen_summary_stats_preprocess.upstream_join_id&#45;&gt;finngen_summary_stats_preprocess.finngen_studies -->
<g id="edge5" class="edge">
<title>finngen_summary_stats_preprocess.upstream_join_id&#45;&gt;finngen_summary_stats_preprocess.finngen_studies</title>
<path fill="none" stroke="black" d="M306.31,-64.43C311.94,-64.8 320.63,-65.37 330.37,-66"/>
<polygon fill="black" stroke="black" points="329.96,-69.48 340.17,-66.64 330.42,-62.5 329.96,-69.48"/>
</g>
<!-- finngen_summary_stats_preprocess.downstream_join_id -->
<g id="node5" class="node">
<title>finngen_summary_stats_preprocess.downstream_join_id</title>
<ellipse fill="CornflowerBlue" stroke="#000000" cx="574.02" cy="-65" rx="7.2" ry="7.2"/>
</g>
<!-- finngen_summary_stats_preprocess.downstream_join_id&#45;&gt;delete_cluster -->
<g id="edge3" class="edge">
<title>finngen_summary_stats_preprocess.downstream_join_id&#45;&gt;delete_cluster</title>
<path fill="none" stroke="black" d="M581.64,-64.01C599.81,-61.3 651.89,-53.52 693.2,-47.35"/>
<polygon fill="black" stroke="black" points="693.66,-50.82 703.04,-45.89 692.63,-43.9 693.66,-50.82"/>
</g>
<!-- finngen_summary_stats_preprocess.finngen_studies&#45;&gt;finngen_summary_stats_preprocess.downstream_join_id -->
<g id="edge4" class="edge">
<title>finngen_summary_stats_preprocess.finngen_studies&#45;&gt;finngen_summary_stats_preprocess.downstream_join_id</title>
<path fill="none" stroke="black" d="M443.62,-68.61C480.87,-67.57 529.58,-66.21 555.31,-65.49"/>
<polygon fill="black" stroke="black" points="555.08,-69 564.98,-65.22 554.88,-62 555.08,-69"/>
</g>
<!-- install_dependencies&#45;&gt;finngen_finemapping_ingestion -->
<g id="edge6" class="edge">
<title>install_dependencies&#45;&gt;finngen_finemapping_ingestion</title>
<path fill="none" stroke="black" d="M255.98,-36.32C313.74,-32.98 399.96,-28 467.91,-24.07"/>
<polygon fill="black" stroke="black" points="467.79,-27.59 477.57,-23.51 467.39,-20.6 467.79,-27.59"/>
</g>
<!-- install_dependencies&#45;&gt;finngen_summary_stats_preprocess.upstream_join_id -->
<g id="edge7" class="edge">
<title>install_dependencies&#45;&gt;finngen_summary_stats_preprocess.upstream_join_id</title>
<path fill="none" stroke="black" d="M255.72,-54.45C264.66,-56.48 273.17,-58.42 280.16,-60.01"/>
<polygon fill="black" stroke="black" points="279.15,-63.37 289.68,-62.17 280.7,-56.54 279.15,-63.37"/>
</g>
</g>
</svg>
