<?xml version="1.0" encoding="UTF-8" standalone="no"?>
<!DOCTYPE svg PUBLIC "-//W3C//DTD SVG 1.1//EN"
 "http://www.w3.org/Graphics/SVG/1.1/DTD/svg11.dtd">
<!-- Generated by graphviz version 11.0.0 (20240428.1522)
 -->
<!-- Title: genetics_etl Pages: 1 -->
<svg width="1742pt" height="558pt"
 viewBox="0.00 0.00 1741.95 557.50" xmlns="http://www.w3.org/2000/svg" xmlns:xlink="http://www.w3.org/1999/xlink">
<g id="graph0" class="graph" transform="scale(1 1) rotate(0) translate(4 553.5)">
<title>genetics_etl</title>
<polygon fill="white" stroke="none" points="-4,4 -4,-553.5 1737.95,-553.5 1737.95,4 -4,4"/>
<text text-anchor="middle" x="866.98" y="-532.2" font-family="Times,serif" font-size="14.00">genetics_etl</text>
<g id="clust1" class="cluster">
<title>cluster_data_transfer</title>
<polygon fill="#6495ed" fill-opacity="0.498039" stroke="#000000" points="183.5,-8 183.5,-517 553.3,-517 553.3,-8 183.5,-8"/>
<text text-anchor="middle" x="368.4" y="-499.7" font-family="Times,serif" font-size="14.00">data_transfer</text>
</g>
<g id="clust2" class="cluster">
<title>cluster_genetics_etl</title>
<polygon fill="#6495ed" fill-opacity="0.498039" stroke="#000000" points="573.3,-107 573.3,-412 1725.95,-412 1725.95,-107 573.3,-107"/>
<text text-anchor="middle" x="1149.63" y="-394.7" font-family="Times,serif" font-size="14.00">genetics_etl</text>
</g>
<!-- data_transfer.upstream_join_id -->
<g id="node1" class="node">
<title>data_transfer.upstream_join_id</title>
<ellipse fill="CornflowerBlue" stroke="#000000" cx="198.7" cy="-250" rx="7.2" ry="7.2"/>
</g>
<!-- data_transfer.move_eqtl_catalogue_study_index -->
<g id="node3" class="node">
<title>data_transfer.move_eqtl_catalogue_study_index</title>
<path fill="#f0eee4" stroke="#000000" d="M458.9,-52C458.9,-52 277.9,-52 277.9,-52 271.9,-52 265.9,-46 265.9,-40 265.9,-40 265.9,-28 265.9,-28 265.9,-22 271.9,-16 277.9,-16 277.9,-16 458.9,-16 458.9,-16 464.9,-16 470.9,-22 470.9,-28 470.9,-28 470.9,-40 470.9,-40 470.9,-46 464.9,-52 458.9,-52"/>
<text text-anchor="middle" x="368.4" y="-28.95" font-family="Times,serif" font-size="14.00">move_eqtl_catalogue_study_index</text>
</g>
<!-- data_transfer.upstream_join_id&#45;&gt;data_transfer.move_eqtl_catalogue_study_index -->
<g id="edge11" class="edge">
<title>data_transfer.upstream_join_id&#45;&gt;data_transfer.move_eqtl_catalogue_study_index</title>
<path fill="none" stroke="black" d="M200.3,-242.7C203.02,-211.22 215.29,-87.4 241.9,-61 246.05,-56.89 250.66,-53.33 255.6,-50.27"/>
<polygon fill="black" stroke="black" points="256.98,-53.49 264.13,-45.67 253.66,-47.33 256.98,-53.49"/>
</g>
<!-- data_transfer.move_eqtl_catalogue_susie_credible_set -->
<g id="node4" class="node">
<title>data_transfer.move_eqtl_catalogue_susie_credible_set</title>
<path fill="#f0eee4" stroke="#000000" d="M475.4,-106C475.4,-106 261.4,-106 261.4,-106 255.4,-106 249.4,-100 249.4,-94 249.4,-94 249.4,-82 249.4,-82 249.4,-76 255.4,-70 261.4,-70 261.4,-70 475.4,-70 475.4,-70 481.4,-70 487.4,-76 487.4,-82 487.4,-82 487.4,-94 487.4,-94 487.4,-100 481.4,-106 475.4,-106"/>
<text text-anchor="middle" x="368.4" y="-82.95" font-family="Times,serif" font-size="14.00">move_eqtl_catalogue_susie_credible_set</text>
</g>
<!-- data_transfer.upstream_join_id&#45;&gt;data_transfer.move_eqtl_catalogue_susie_credible_set -->
<g id="edge12" class="edge">
<title>data_transfer.upstream_join_id&#45;&gt;data_transfer.move_eqtl_catalogue_susie_credible_set</title>
<path fill="none" stroke="black" d="M199.6,-242.52C199.74,-219.65 203.45,-150.1 241.9,-115 242.67,-114.29 243.46,-113.6 244.26,-112.93"/>
<polygon fill="black" stroke="black" points="246.08,-115.94 252.09,-107.22 241.95,-110.29 246.08,-115.94"/>
</g>
<!-- data_transfer.move_finngen_study_index -->
<g id="node5" class="node">
<title>data_transfer.move_finngen_study_index</title>
<path fill="#f0eee4" stroke="#000000" d="M440.15,-160C440.15,-160 296.65,-160 296.65,-160 290.65,-160 284.65,-154 284.65,-148 284.65,-148 284.65,-136 284.65,-136 284.65,-130 290.65,-124 296.65,-124 296.65,-124 440.15,-124 440.15,-124 446.15,-124 452.15,-130 452.15,-136 452.15,-136 452.15,-148 452.15,-148 452.15,-154 446.15,-160 440.15,-160"/>
<text text-anchor="middle" x="368.4" y="-136.95" font-family="Times,serif" font-size="14.00">move_finngen_study_index</text>
</g>
<!-- data_transfer.upstream_join_id&#45;&gt;data_transfer.move_finngen_study_index -->
<g id="edge13" class="edge">
<title>data_transfer.upstream_join_id&#45;&gt;data_transfer.move_finngen_study_index</title>
<path fill="none" stroke="black" d="M201.25,-242.83C205.11,-226.85 216.68,-188.22 241.9,-169 251.24,-161.89 262.04,-156.55 273.32,-152.58"/>
<polygon fill="black" stroke="black" points="274.3,-155.94 282.8,-149.61 272.21,-149.26 274.3,-155.94"/>
</g>
<!-- data_transfer.move_finngen_susie_credible_set -->
<g id="node6" class="node">
<title>data_transfer.move_finngen_susie_credible_set</title>
<path fill="#f0eee4" stroke="#000000" d="M456.65,-214C456.65,-214 280.15,-214 280.15,-214 274.15,-214 268.15,-208 268.15,-202 268.15,-202 268.15,-190 268.15,-190 268.15,-184 274.15,-178 280.15,-178 280.15,-178 456.65,-178 456.65,-178 462.65,-178 468.65,-184 468.65,-190 468.65,-190 468.65,-202 468.65,-202 468.65,-208 462.65,-214 456.65,-214"/>
<text text-anchor="middle" x="368.4" y="-190.95" font-family="Times,serif" font-size="14.00">move_finngen_susie_credible_set</text>
</g>
<!-- data_transfer.upstream_join_id&#45;&gt;data_transfer.move_finngen_susie_credible_set -->
<g id="edge14" class="edge">
<title>data_transfer.upstream_join_id&#45;&gt;data_transfer.move_finngen_susie_credible_set</title>
<path fill="none" stroke="black" d="M204.82,-245.85C212.44,-239.89 227.42,-228.96 241.9,-223 246.79,-220.98 251.86,-219.11 257.03,-217.37"/>
<polygon fill="black" stroke="black" points="257.82,-220.79 266.3,-214.44 255.71,-214.12 257.82,-220.79"/>
</g>
<!-- data_transfer.move_gold_standard -->
<g id="node7" class="node">
<title>data_transfer.move_gold_standard</title>
<path fill="#f0eee4" stroke="#000000" d="M421.4,-268C421.4,-268 315.4,-268 315.4,-268 309.4,-268 303.4,-262 303.4,-256 303.4,-256 303.4,-244 303.4,-244 303.4,-238 309.4,-232 315.4,-232 315.4,-232 421.4,-232 421.4,-232 427.4,-232 433.4,-238 433.4,-244 433.4,-244 433.4,-256 433.4,-256 433.4,-262 427.4,-268 421.4,-268"/>
<text text-anchor="middle" x="368.4" y="-244.95" font-family="Times,serif" font-size="14.00">move_gold_standard</text>
</g>
<!-- data_transfer.upstream_join_id&#45;&gt;data_transfer.move_gold_standard -->
<g id="edge15" class="edge">
<title>data_transfer.upstream_join_id&#45;&gt;data_transfer.move_gold_standard</title>
<path fill="none" stroke="black" d="M206.07,-250C220.48,-250 257.06,-250 291.74,-250"/>
<polygon fill="black" stroke="black" points="291.39,-253.5 301.39,-250 291.39,-246.5 291.39,-253.5"/>
</g>
<!-- data_transfer.move_gwas_catalog_curated_credible_set -->
<g id="node8" class="node">
<title>data_transfer.move_gwas_catalog_curated_credible_set</title>
<path fill="#f0eee4" stroke="#000000" d="M479.15,-322C479.15,-322 257.65,-322 257.65,-322 251.65,-322 245.65,-316 245.65,-310 245.65,-310 245.65,-298 245.65,-298 245.65,-292 251.65,-286 257.65,-286 257.65,-286 479.15,-286 479.15,-286 485.15,-286 491.15,-292 491.15,-298 491.15,-298 491.15,-310 491.15,-310 491.15,-316 485.15,-322 479.15,-322"/>
<text text-anchor="middle" x="368.4" y="-298.95" font-family="Times,serif" font-size="14.00">move_gwas_catalog_curated_credible_set</text>
</g>
<!-- data_transfer.upstream_join_id&#45;&gt;data_transfer.move_gwas_catalog_curated_credible_set -->
<g id="edge16" class="edge">
<title>data_transfer.upstream_join_id&#45;&gt;data_transfer.move_gwas_catalog_curated_credible_set</title>
<path fill="none" stroke="black" d="M204.82,-254.15C212.44,-260.11 227.42,-271.04 241.9,-277 246.25,-278.79 250.73,-280.47 255.3,-282.04"/>
<polygon fill="black" stroke="black" points="254.05,-285.32 264.64,-285.06 256.2,-278.65 254.05,-285.32"/>
</g>
<!-- data_transfer.move_gwas_catalog_manifests -->
<g id="node9" class="node">
<title>data_transfer.move_gwas_catalog_manifests</title>
<path fill="#f0eee4" stroke="#000000" d="M449.53,-376C449.53,-376 287.28,-376 287.28,-376 281.28,-376 275.28,-370 275.28,-364 275.28,-364 275.28,-352 275.28,-352 275.28,-346 281.28,-340 287.28,-340 287.28,-340 449.53,-340 449.53,-340 455.53,-340 461.53,-346 461.53,-352 461.53,-352 461.53,-364 461.53,-364 461.53,-370 455.53,-376 449.53,-376"/>
<text text-anchor="middle" x="368.4" y="-352.95" font-family="Times,serif" font-size="14.00">move_gwas_catalog_manifests</text>
</g>
<!-- data_transfer.upstream_join_id&#45;&gt;data_transfer.move_gwas_catalog_manifests -->
<g id="edge17" class="edge">
<title>data_transfer.upstream_join_id&#45;&gt;data_transfer.move_gwas_catalog_manifests</title>
<path fill="none" stroke="black" d="M201.25,-257.17C205.11,-273.15 216.68,-311.78 241.9,-331 248.68,-336.17 256.23,-340.39 264.18,-343.84"/>
<polygon fill="black" stroke="black" points="262.82,-347.07 273.41,-347.4 265.34,-340.54 262.82,-347.07"/>
</g>
<!-- data_transfer.move_gwas_catalog_study_index -->
<g id="node10" class="node">
<title>data_transfer.move_gwas_catalog_study_index</title>
<path fill="#f0eee4" stroke="#000000" d="M456.28,-430C456.28,-430 280.53,-430 280.53,-430 274.53,-430 268.53,-424 268.53,-418 268.53,-418 268.53,-406 268.53,-406 268.53,-400 274.53,-394 280.53,-394 280.53,-394 456.28,-394 456.28,-394 462.28,-394 468.28,-400 468.28,-406 468.28,-406 468.28,-418 468.28,-418 468.28,-424 462.28,-430 456.28,-430"/>
<text text-anchor="middle" x="368.4" y="-406.95" font-family="Times,serif" font-size="14.00">move_gwas_catalog_study_index</text>
</g>
<!-- data_transfer.upstream_join_id&#45;&gt;data_transfer.move_gwas_catalog_study_index -->
<g id="edge18" class="edge">
<title>data_transfer.upstream_join_id&#45;&gt;data_transfer.move_gwas_catalog_study_index</title>
<path fill="none" stroke="black" d="M199.6,-257.48C199.74,-280.35 203.45,-349.9 241.9,-385 246.8,-389.48 252.26,-393.28 258.09,-396.5"/>
<polygon fill="black" stroke="black" points="256.31,-399.52 266.83,-400.73 259.36,-393.22 256.31,-399.52"/>
</g>
<!-- data_transfer.move_gwas_catalog_sumstats_credible_set -->
<g id="node11" class="node">
<title>data_transfer.move_gwas_catalog_sumstats_credible_set</title>
<path fill="#f0eee4" stroke="#000000" d="M482.9,-484C482.9,-484 253.9,-484 253.9,-484 247.9,-484 241.9,-478 241.9,-472 241.9,-472 241.9,-460 241.9,-460 241.9,-454 247.9,-448 253.9,-448 253.9,-448 482.9,-448 482.9,-448 488.9,-448 494.9,-454 494.9,-460 494.9,-460 494.9,-472 494.9,-472 494.9,-478 488.9,-484 482.9,-484"/>
<text text-anchor="middle" x="368.4" y="-460.95" font-family="Times,serif" font-size="14.00">move_gwas_catalog_sumstats_credible_set</text>
</g>
<!-- data_transfer.upstream_join_id&#45;&gt;data_transfer.move_gwas_catalog_sumstats_credible_set -->
<g id="edge19" class="edge">
<title>data_transfer.upstream_join_id&#45;&gt;data_transfer.move_gwas_catalog_sumstats_credible_set</title>
<path fill="none" stroke="black" d="M200.3,-257.3C203.02,-288.78 215.29,-412.6 241.9,-439 242.41,-439.5 242.92,-440 243.44,-440.48"/>
<polygon fill="black" stroke="black" points="241.24,-443.21 251.24,-446.72 245.61,-437.74 241.24,-443.21"/>
</g>
<!-- data_transfer.downstream_join_id -->
<g id="node2" class="node">
<title>data_transfer.downstream_join_id</title>
<ellipse fill="CornflowerBlue" stroke="#000000" cx="538.1" cy="-250" rx="7.2" ry="7.2"/>
</g>
<!-- genetics_etl.upstream_join_id -->
<g id="node12" class="node">
<title>genetics_etl.upstream_join_id</title>
<ellipse fill="CornflowerBlue" stroke="#000000" cx="588.5" cy="-250" rx="7.2" ry="7.2"/>
</g>
<!-- data_transfer.downstream_join_id&#45;&gt;genetics_etl.upstream_join_id -->
<g id="edge1" class="edge">
<title>data_transfer.downstream_join_id&#45;&gt;genetics_etl.upstream_join_id</title>
<path fill="none" stroke="black" d="M545.43,-250C551.55,-250 561.13,-250 569.6,-250"/>
<polygon fill="black" stroke="black" points="569.5,-253.5 579.5,-250 569.5,-246.5 569.5,-253.5"/>
</g>
<!-- data_transfer.move_eqtl_catalogue_study_index&#45;&gt;data_transfer.downstream_join_id -->
<g id="edge2" class="edge">
<title>data_transfer.move_eqtl_catalogue_study_index&#45;&gt;data_transfer.downstream_join_id</title>
<path fill="none" stroke="black" d="M471.34,-44.95C480.04,-49.01 488.1,-54.25 494.9,-61 518.96,-84.88 531.3,-188.41 535.46,-231.29"/>
<polygon fill="black" stroke="black" points="531.97,-231.56 536.37,-241.2 538.94,-230.92 531.97,-231.56"/>
</g>
<!-- data_transfer.move_eqtl_catalogue_susie_credible_set&#45;&gt;data_transfer.downstream_join_id -->
<g id="edge3" class="edge">
<title>data_transfer.move_eqtl_catalogue_susie_credible_set&#45;&gt;data_transfer.downstream_join_id</title>
<path fill="none" stroke="black" d="M483.48,-106.33C487.53,-108.89 491.36,-111.77 494.9,-115 528.24,-145.44 535.46,-201.78 536.88,-231.12"/>
<polygon fill="black" stroke="black" points="533.38,-231.11 537.15,-241 540.37,-230.91 533.38,-231.11"/>
</g>
<!-- data_transfer.move_finngen_study_index&#45;&gt;data_transfer.downstream_join_id -->
<g id="edge4" class="edge">
<title>data_transfer.move_finngen_study_index&#45;&gt;data_transfer.downstream_join_id</title>
<path fill="none" stroke="black" d="M452.56,-149.16C467.7,-153.33 482.58,-159.61 494.9,-169 515.39,-184.62 526.87,-213.05 532.53,-231.73"/>
<polygon fill="black" stroke="black" points="529.15,-232.64 535.15,-241.37 535.9,-230.8 529.15,-232.64"/>
</g>
<!-- data_transfer.move_finngen_susie_credible_set&#45;&gt;data_transfer.downstream_join_id -->
<g id="edge5" class="edge">
<title>data_transfer.move_finngen_susie_credible_set&#45;&gt;data_transfer.downstream_join_id</title>
<path fill="none" stroke="black" d="M469.06,-213.98C477.93,-216.61 486.66,-219.61 494.9,-223 504.85,-227.1 515.04,-233.54 522.92,-239.11"/>
<polygon fill="black" stroke="black" points="520.65,-241.78 530.76,-244.95 524.83,-236.17 520.65,-241.78"/>
</g>
<!-- data_transfer.move_gold_standard&#45;&gt;data_transfer.downstream_join_id -->
<g id="edge6" class="edge">
<title>data_transfer.move_gold_standard&#45;&gt;data_transfer.downstream_join_id</title>
<path fill="none" stroke="black" d="M433.76,-250C464.52,-250 499,-250 519.33,-250"/>
<polygon fill="black" stroke="black" points="519.19,-253.5 529.19,-250 519.19,-246.5 519.19,-253.5"/>
</g>
<!-- data_transfer.move_gwas_catalog_curated_credible_set&#45;&gt;data_transfer.downstream_join_id -->
<g id="edge7" class="edge">
<title>data_transfer.move_gwas_catalog_curated_credible_set&#45;&gt;data_transfer.downstream_join_id</title>
<path fill="none" stroke="black" d="M470.72,-285.52C479.01,-283.01 487.17,-280.18 494.9,-277 504.85,-272.9 515.04,-266.46 522.92,-260.89"/>
<polygon fill="black" stroke="black" points="524.83,-263.83 530.76,-255.05 520.65,-258.22 524.83,-263.83"/>
</g>
<!-- data_transfer.move_gwas_catalog_manifests&#45;&gt;data_transfer.downstream_join_id -->
<g id="edge8" class="edge">
<title>data_transfer.move_gwas_catalog_manifests&#45;&gt;data_transfer.downstream_join_id</title>
<path fill="none" stroke="black" d="M461.98,-347.94C473.8,-343.91 485.15,-338.43 494.9,-331 515.39,-315.38 526.87,-286.95 532.53,-268.27"/>
<polygon fill="black" stroke="black" points="535.9,-269.2 535.15,-258.63 529.15,-267.36 535.9,-269.2"/>
</g>
<!-- data_transfer.move_gwas_catalog_study_index&#45;&gt;data_transfer.downstream_join_id -->
<g id="edge9" class="edge">
<title>data_transfer.move_gwas_catalog_study_index&#45;&gt;data_transfer.downstream_join_id</title>
<path fill="none" stroke="black" d="M468.6,-401.39C478.23,-397.33 487.25,-391.99 494.9,-385 528.24,-354.56 535.46,-298.22 536.88,-268.88"/>
<polygon fill="black" stroke="black" points="540.37,-269.09 537.15,-259 533.38,-268.89 540.37,-269.09"/>
</g>
<!-- data_transfer.move_gwas_catalog_sumstats_credible_set&#45;&gt;data_transfer.downstream_join_id -->
<g id="edge10" class="edge">
<title>data_transfer.move_gwas_catalog_sumstats_credible_set&#45;&gt;data_transfer.downstream_join_id</title>
<path fill="none" stroke="black" d="M484.38,-447.66C488.13,-445.09 491.66,-442.22 494.9,-439 518.96,-415.12 531.3,-311.59 535.46,-268.71"/>
<polygon fill="black" stroke="black" points="538.94,-269.08 536.37,-258.8 531.97,-268.44 538.94,-269.08"/>
</g>
<!-- genetics_etl.create_cluster -->
<g id="node13" class="node">
<title>genetics_etl.create_cluster</title>
<path fill="#ffffff" stroke="#000000" d="M710.7,-268C710.7,-268 643.7,-268 643.7,-268 637.7,-268 631.7,-262 631.7,-256 631.7,-256 631.7,-244 631.7,-244 631.7,-238 637.7,-232 643.7,-232 643.7,-232 710.7,-232 710.7,-232 716.7,-232 722.7,-238 722.7,-244 722.7,-244 722.7,-256 722.7,-256 722.7,-262 716.7,-268 710.7,-268"/>
<text text-anchor="middle" x="677.2" y="-244.95" font-family="Times,serif" font-size="14.00">create_cluster</text>
</g>
<!-- genetics_etl.upstream_join_id&#45;&gt;genetics_etl.create_cluster -->
<g id="edge46" class="edge">
<title>genetics_etl.upstream_join_id&#45;&gt;genetics_etl.create_cluster</title>
<path fill="none" stroke="black" d="M596.02,-250C601.68,-250 610.49,-250 620.24,-250"/>
<polygon fill="black" stroke="black" points="620,-253.5 630,-250 620,-246.5 620,-253.5"/>
</g>
<!-- genetics_etl.install_dependencies -->
<g id="node15" class="node">
<title>genetics_etl.install_dependencies</title>
<path fill="#ffffff" stroke="#000000" d="M875.2,-268C875.2,-268 770.7,-268 770.7,-268 764.7,-268 758.7,-262 758.7,-256 758.7,-256 758.7,-244 758.7,-244 758.7,-238 764.7,-232 770.7,-232 770.7,-232 875.2,-232 875.2,-232 881.2,-232 887.2,-238 887.2,-244 887.2,-244 887.2,-256 887.2,-256 887.2,-262 881.2,-268 875.2,-268"/>
<text text-anchor="middle" x="822.95" y="-244.95" font-family="Times,serif" font-size="14.00">install_dependencies</text>
</g>
<!-- genetics_etl.create_cluster&#45;&gt;genetics_etl.install_dependencies -->
<g id="edge20" class="edge">
<title>genetics_etl.create_cluster&#45;&gt;genetics_etl.install_dependencies</title>
<path fill="none" stroke="black" d="M722.9,-250C730.6,-250 738.8,-250 747.04,-250"/>
<polygon fill="black" stroke="black" points="746.77,-253.5 756.77,-250 746.77,-246.5 746.77,-253.5"/>
</g>
<!-- genetics_etl.delete_cluster -->
<g id="node14" class="node">
<title>genetics_etl.delete_cluster</title>
<path fill="#ffffff" stroke="#000000" d="M1705.95,-251C1705.95,-251 1638.95,-251 1638.95,-251 1632.95,-251 1626.95,-245 1626.95,-239 1626.95,-239 1626.95,-227 1626.95,-227 1626.95,-221 1632.95,-215 1638.95,-215 1638.95,-215 1705.95,-215 1705.95,-215 1711.95,-215 1717.95,-221 1717.95,-227 1717.95,-227 1717.95,-239 1717.95,-239 1717.95,-245 1711.95,-251 1705.95,-251"/>
<text text-anchor="middle" x="1672.45" y="-227.95" font-family="Times,serif" font-size="14.00">delete_cluster</text>
</g>
<!-- genetics_etl.ot_colocalisation_coloc -->
<g id="node16" class="node">
<title>genetics_etl.ot_colocalisation_coloc</title>
<path fill="#ffffff" stroke="#000000" d="M1203.83,-379C1203.83,-379 1083.58,-379 1083.58,-379 1077.58,-379 1071.58,-373 1071.58,-367 1071.58,-367 1071.58,-355 1071.58,-355 1071.58,-349 1077.58,-343 1083.58,-343 1083.58,-343 1203.83,-343 1203.83,-343 1209.83,-343 1215.83,-349 1215.83,-355 1215.83,-355 1215.83,-367 1215.83,-367 1215.83,-373 1209.83,-379 1203.83,-379"/>
<text text-anchor="middle" x="1143.7" y="-355.95" font-family="Times,serif" font-size="14.00">ot_colocalisation_coloc</text>
</g>
<!-- genetics_etl.install_dependencies&#45;&gt;genetics_etl.ot_colocalisation_coloc -->
<g id="edge21" class="edge">
<title>genetics_etl.install_dependencies&#45;&gt;genetics_etl.ot_colocalisation_coloc</title>
<path fill="none" stroke="black" d="M870.74,-268.41C887.26,-274.77 906,-281.85 923.2,-288 973.57,-306.01 1030.96,-325.04 1074.42,-339.16"/>
<polygon fill="black" stroke="black" points="1073.12,-342.42 1083.71,-342.17 1075.28,-335.76 1073.12,-342.42"/>
</g>
<!-- genetics_etl.ot_colocalisation_ecaviar -->
<g id="node17" class="node">
<title>genetics_etl.ot_colocalisation_ecaviar</title>
<path fill="#ffffff" stroke="#000000" d="M1208.7,-325C1208.7,-325 1078.7,-325 1078.7,-325 1072.7,-325 1066.7,-319 1066.7,-313 1066.7,-313 1066.7,-301 1066.7,-301 1066.7,-295 1072.7,-289 1078.7,-289 1078.7,-289 1208.7,-289 1208.7,-289 1214.7,-289 1220.7,-295 1220.7,-301 1220.7,-301 1220.7,-313 1220.7,-313 1220.7,-319 1214.7,-325 1208.7,-325"/>
<text text-anchor="middle" x="1143.7" y="-301.95" font-family="Times,serif" font-size="14.00">ot_colocalisation_ecaviar</text>
</g>
<!-- genetics_etl.install_dependencies&#45;&gt;genetics_etl.ot_colocalisation_ecaviar -->
<g id="edge22" class="edge">
<title>genetics_etl.install_dependencies&#45;&gt;genetics_etl.ot_colocalisation_ecaviar</title>
<path fill="none" stroke="black" d="M887.53,-267.04C899.34,-269.91 911.61,-272.7 923.2,-275 966.45,-283.58 1014.91,-290.88 1055.28,-296.34"/>
<polygon fill="black" stroke="black" points="1054.56,-299.77 1064.94,-297.63 1055.49,-292.83 1054.56,-299.77"/>
</g>
<!-- genetics_etl.ot_gene_index -->
<g id="node18" class="node">
<title>genetics_etl.ot_gene_index</title>
<path fill="#ffffff" stroke="#000000" d="M1012.7,-157C1012.7,-157 941.2,-157 941.2,-157 935.2,-157 929.2,-151 929.2,-145 929.2,-145 929.2,-133 929.2,-133 929.2,-127 935.2,-121 941.2,-121 941.2,-121 1012.7,-121 1012.7,-121 1018.7,-121 1024.7,-127 1024.7,-133 1024.7,-133 1024.7,-145 1024.7,-145 1024.7,-151 1018.7,-157 1012.7,-157"/>
<text text-anchor="middle" x="976.95" y="-133.95" font-family="Times,serif" font-size="14.00">ot_gene_index</text>
</g>
<!-- genetics_etl.install_dependencies&#45;&gt;genetics_etl.ot_gene_index -->
<g id="edge23" class="edge">
<title>genetics_etl.install_dependencies&#45;&gt;genetics_etl.ot_gene_index</title>
<path fill="none" stroke="black" d="M843.03,-231.53C862.28,-213.49 893.33,-185.9 923.2,-166 924.59,-165.07 926.02,-164.15 927.47,-163.25"/>
<polygon fill="black" stroke="black" points="929.17,-166.31 936.02,-158.23 925.63,-160.27 929.17,-166.31"/>
</g>
<!-- genetics_etl.ot_locus_to_gene_predict -->
<g id="node19" class="node">
<title>genetics_etl.ot_locus_to_gene_predict</title>
<path fill="#ffffff" stroke="#000000" d="M1578.95,-251C1578.95,-251 1447.45,-251 1447.45,-251 1441.45,-251 1435.45,-245 1435.45,-239 1435.45,-239 1435.45,-227 1435.45,-227 1435.45,-221 1441.45,-215 1447.45,-215 1447.45,-215 1578.95,-215 1578.95,-215 1584.95,-215 1590.95,-221 1590.95,-227 1590.95,-227 1590.95,-239 1590.95,-239 1590.95,-245 1584.95,-251 1578.95,-251"/>
<text text-anchor="middle" x="1513.2" y="-227.95" font-family="Times,serif" font-size="14.00">ot_locus_to_gene_predict</text>
</g>
<!-- genetics_etl.install_dependencies&#45;&gt;genetics_etl.ot_locus_to_gene_predict -->
<g id="edge24" class="edge">
<title>genetics_etl.install_dependencies&#45;&gt;genetics_etl.ot_locus_to_gene_predict</title>
<path fill="none" stroke="black" d="M887.47,-248.43C1010.83,-245.38 1283.06,-238.66 1423.92,-235.18"/>
<polygon fill="black" stroke="black" points="1423.64,-238.69 1433.55,-234.94 1423.47,-231.69 1423.64,-238.69"/>
</g>
<!-- genetics_etl.ot_locus_to_gene_train -->
<g id="node20" class="node">
<title>genetics_etl.ot_locus_to_gene_train</title>
<path fill="#ffffff" stroke="#000000" d="M1387.45,-288C1387.45,-288 1268.7,-288 1268.7,-288 1262.7,-288 1256.7,-282 1256.7,-276 1256.7,-276 1256.7,-264 1256.7,-264 1256.7,-258 1262.7,-252 1268.7,-252 1268.7,-252 1387.45,-252 1387.45,-252 1393.45,-252 1399.45,-258 1399.45,-264 1399.45,-264 1399.45,-276 1399.45,-276 1399.45,-282 1393.45,-288 1387.45,-288"/>
<text text-anchor="middle" x="1328.08" y="-264.95" font-family="Times,serif" font-size="14.00">ot_locus_to_gene_train</text>
</g>
<!-- genetics_etl.install_dependencies&#45;&gt;genetics_etl.ot_locus_to_gene_train -->
<g id="edge25" class="edge">
<title>genetics_etl.install_dependencies&#45;&gt;genetics_etl.ot_locus_to_gene_train</title>
<path fill="none" stroke="black" d="M887.48,-253.33C899.35,-253.91 911.65,-254.49 923.2,-255 1034.56,-259.87 1163.23,-264.47 1244.85,-267.26"/>
<polygon fill="black" stroke="black" points="1244.67,-270.76 1254.78,-267.6 1244.91,-263.76 1244.67,-270.76"/>
</g>
<!-- genetics_etl.ot_variant_index -->
<g id="node21" class="node">
<title>genetics_etl.ot_variant_index</title>
<path fill="#ffffff" stroke="#000000" d="M1018.7,-211C1018.7,-211 935.2,-211 935.2,-211 929.2,-211 923.2,-205 923.2,-199 923.2,-199 923.2,-187 923.2,-187 923.2,-181 929.2,-175 935.2,-175 935.2,-175 1018.7,-175 1018.7,-175 1024.7,-175 1030.7,-181 1030.7,-187 1030.7,-187 1030.7,-199 1030.7,-199 1030.7,-205 1024.7,-211 1018.7,-211"/>
<text text-anchor="middle" x="976.95" y="-187.95" font-family="Times,serif" font-size="14.00">ot_variant_index</text>
</g>
<!-- genetics_etl.install_dependencies&#45;&gt;genetics_etl.ot_variant_index -->
<g id="edge26" class="edge">
<title>genetics_etl.install_dependencies&#45;&gt;genetics_etl.ot_variant_index</title>
<path fill="none" stroke="black" d="M872.88,-231.65C886.64,-226.49 901.77,-220.82 916.09,-215.45"/>
<polygon fill="black" stroke="black" points="917.3,-218.73 925.43,-211.94 914.84,-212.18 917.3,-218.73"/>
</g>
<!-- genetics_etl.ot_variant_to_gene -->
<g id="node22" class="node">
<title>genetics_etl.ot_variant_to_gene</title>
<path fill="#ffffff" stroke="#000000" d="M1191.83,-211C1191.83,-211 1095.58,-211 1095.58,-211 1089.58,-211 1083.58,-205 1083.58,-199 1083.58,-199 1083.58,-187 1083.58,-187 1083.58,-181 1089.58,-175 1095.58,-175 1095.58,-175 1191.83,-175 1191.83,-175 1197.83,-175 1203.83,-181 1203.83,-187 1203.83,-187 1203.83,-199 1203.83,-199 1203.83,-205 1197.83,-211 1191.83,-211"/>
<text text-anchor="middle" x="1143.7" y="-187.95" font-family="Times,serif" font-size="14.00">ot_variant_to_gene</text>
</g>
<!-- genetics_etl.install_dependencies&#45;&gt;genetics_etl.ot_variant_to_gene -->
<g id="edge27" class="edge">
<title>genetics_etl.install_dependencies&#45;&gt;genetics_etl.ot_variant_to_gene</title>
<path fill="none" stroke="black" d="M887.55,-242.32C928.57,-236.98 982.98,-229.19 1030.7,-220 1044.26,-217.39 1058.65,-214.22 1072.44,-210.99"/>
<polygon fill="black" stroke="black" points="1072.96,-214.46 1081.87,-208.74 1071.33,-207.65 1072.96,-214.46"/>
</g>
<!-- genetics_etl.ot_colocalisation_coloc&#45;&gt;genetics_etl.delete_cluster -->
<g id="edge28" class="edge">
<title>genetics_etl.ot_colocalisation_coloc&#45;&gt;genetics_etl.delete_cluster</title>
<path fill="none" stroke="black" d="M1216.11,-362.15C1307.17,-361.01 1467.6,-350.15 1590.95,-294 1610.25,-285.22 1629.27,-271.12 1643.98,-258.69"/>
<polygon fill="black" stroke="black" points="1646.16,-261.44 1651.4,-252.23 1641.56,-256.16 1646.16,-261.44"/>
</g>
<!-- genetics_etl.ot_colocalisation_coloc&#45;&gt;genetics_etl.ot_locus_to_gene_predict -->
<g id="edge29" class="edge">
<title>genetics_etl.ot_colocalisation_coloc&#45;&gt;genetics_etl.ot_locus_to_gene_predict</title>
<path fill="none" stroke="black" d="M1216.14,-354.45C1268.49,-347.82 1340.42,-334.85 1399.45,-310 1429.85,-297.21 1460.5,-275.58 1482.16,-258.49"/>
<polygon fill="black" stroke="black" points="1484.09,-261.43 1489.69,-252.44 1479.7,-255.98 1484.09,-261.43"/>
</g>
<!-- genetics_etl.ot_colocalisation_coloc&#45;&gt;genetics_etl.ot_locus_to_gene_train -->
<g id="edge30" class="edge">
<title>genetics_etl.ot_colocalisation_coloc&#45;&gt;genetics_etl.ot_locus_to_gene_train</title>
<path fill="none" stroke="black" d="M1200.43,-342.66C1207.34,-339.96 1214.24,-337.05 1220.7,-334 1244.7,-322.66 1270.24,-307.41 1290.27,-294.64"/>
<polygon fill="black" stroke="black" points="1292.14,-297.6 1298.65,-289.24 1288.35,-291.72 1292.14,-297.6"/>
</g>
<!-- genetics_etl.ot_colocalisation_ecaviar&#45;&gt;genetics_etl.delete_cluster -->
<g id="edge31" class="edge">
<title>genetics_etl.ot_colocalisation_ecaviar&#45;&gt;genetics_etl.delete_cluster</title>
<path fill="none" stroke="black" d="M1220.91,-309.32C1232.88,-309.6 1245.13,-309.85 1256.7,-310 1406.25,-312 1449.03,-318.19 1590.95,-271 1602.96,-267.01 1615.53,-261.68 1627.07,-256.28"/>
<polygon fill="black" stroke="black" points="1628.48,-259.48 1635.97,-251.99 1625.44,-253.18 1628.48,-259.48"/>
</g>
<!-- genetics_etl.ot_colocalisation_ecaviar&#45;&gt;genetics_etl.ot_locus_to_gene_predict -->
<g id="edge32" class="edge">
<title>genetics_etl.ot_colocalisation_ecaviar&#45;&gt;genetics_etl.ot_locus_to_gene_predict</title>
<path fill="none" stroke="black" d="M1221.14,-313.32C1272.53,-315.32 1341.24,-313.6 1399.45,-297 1427.98,-288.86 1457.02,-272.14 1478.49,-257.83"/>
<polygon fill="black" stroke="black" points="1480.26,-260.85 1486.54,-252.32 1476.31,-255.08 1480.26,-260.85"/>
</g>
<!-- genetics_etl.ot_colocalisation_ecaviar&#45;&gt;genetics_etl.ot_locus_to_gene_train -->
<g id="edge33" class="edge">
<title>genetics_etl.ot_colocalisation_ecaviar&#45;&gt;genetics_etl.ot_locus_to_gene_train</title>
<path fill="none" stroke="black" d="M1220.99,-291.52C1228.95,-289.91 1237.06,-288.26 1245.09,-286.63"/>
<polygon fill="black" stroke="black" points="1245.75,-290.07 1254.85,-284.65 1244.36,-283.21 1245.75,-290.07"/>
</g>
<!-- genetics_etl.ot_gene_index&#45;&gt;genetics_etl.delete_cluster -->
<g id="edge34" class="edge">
<title>genetics_etl.ot_gene_index&#45;&gt;genetics_etl.delete_cluster</title>
<path fill="none" stroke="black" d="M1025.16,-127.63C1131.62,-104.49 1396.24,-60.99 1590.95,-147 1618.12,-159 1640.37,-185.07 1654.54,-205.37"/>
<polygon fill="black" stroke="black" points="1651.53,-207.16 1659.99,-213.53 1657.35,-203.27 1651.53,-207.16"/>
</g>
<!-- genetics_etl.ot_gene_index&#45;&gt;genetics_etl.ot_variant_to_gene -->
<g id="edge35" class="edge">
<title>genetics_etl.ot_gene_index&#45;&gt;genetics_etl.ot_variant_to_gene</title>
<path fill="none" stroke="black" d="M1025.16,-154.47C1040.84,-159.61 1058.61,-165.44 1075.5,-170.97"/>
<polygon fill="black" stroke="black" points="1074.41,-174.3 1085,-174.09 1076.59,-167.65 1074.41,-174.3"/>
</g>
<!-- genetics_etl.ot_locus_to_gene_predict&#45;&gt;genetics_etl.delete_cluster -->
<g id="edge36" class="edge">
<title>genetics_etl.ot_locus_to_gene_predict&#45;&gt;genetics_etl.delete_cluster</title>
<path fill="none" stroke="black" d="M1591.44,-233C1599.49,-233 1607.55,-233 1615.3,-233"/>
<polygon fill="black" stroke="black" points="1615.26,-236.5 1625.26,-233 1615.26,-229.5 1615.26,-236.5"/>
</g>
<!-- genetics_etl.ot_locus_to_gene_train&#45;&gt;genetics_etl.delete_cluster -->
<g id="edge37" class="edge">
<title>genetics_etl.ot_locus_to_gene_train&#45;&gt;genetics_etl.delete_cluster</title>
<path fill="none" stroke="black" d="M1399.69,-272.72C1452.74,-273.45 1526.95,-271.7 1590.95,-260 1599.02,-258.52 1607.4,-256.41 1615.55,-254.01"/>
<polygon fill="black" stroke="black" points="1616.55,-257.37 1625.05,-251.04 1614.46,-250.68 1616.55,-257.37"/>
</g>
<!-- genetics_etl.ot_locus_to_gene_train&#45;&gt;genetics_etl.ot_locus_to_gene_predict -->
<g id="edge38" class="edge">
<title>genetics_etl.ot_locus_to_gene_train&#45;&gt;genetics_etl.ot_locus_to_gene_predict</title>
<path fill="none" stroke="black" d="M1399.88,-255.69C1407.83,-254.09 1416.01,-252.43 1424.15,-250.79"/>
<polygon fill="black" stroke="black" points="1424.61,-254.27 1433.72,-248.86 1423.23,-247.41 1424.61,-254.27"/>
</g>
<!-- genetics_etl.ot_variant_index&#45;&gt;genetics_etl.delete_cluster -->
<g id="edge39" class="edge">
<title>genetics_etl.ot_variant_index&#45;&gt;genetics_etl.delete_cluster</title>
<path fill="none" stroke="black" d="M1014.39,-174.7C1033.94,-165.27 1056.13,-155.27 1066.7,-153 1133.62,-138.62 1152.28,-151.28 1220.7,-153 1385.82,-157.15 1434.62,-131.7 1590.95,-185 1607.06,-190.49 1623.45,-199.51 1637.19,-208.26"/>
<polygon fill="black" stroke="black" points="1635.16,-211.11 1645.43,-213.69 1639.01,-205.26 1635.16,-211.11"/>
</g>
<!-- genetics_etl.ot_variant_index&#45;&gt;genetics_etl.ot_locus_to_gene_predict -->
<g id="edge40" class="edge">
<title>genetics_etl.ot_variant_index&#45;&gt;genetics_etl.ot_locus_to_gene_predict</title>
<path fill="none" stroke="black" d="M1029.45,-174.53C1041.52,-170.99 1054.43,-167.82 1066.7,-166 1213.79,-144.12 1254.83,-166.38 1399.45,-201 1412.51,-204.13 1426.34,-207.77 1439.66,-211.45"/>
<polygon fill="black" stroke="black" points="1438.68,-214.81 1449.25,-214.14 1440.56,-208.07 1438.68,-214.81"/>
</g>
<!-- genetics_etl.ot_variant_index&#45;&gt;genetics_etl.ot_locus_to_gene_train -->
<g id="edge41" class="edge">
<title>genetics_etl.ot_variant_index&#45;&gt;genetics_etl.ot_locus_to_gene_train</title>
<path fill="none" stroke="black" d="M1031.2,-210.2C1042.83,-213.67 1055.13,-217.14 1066.7,-220 1126.02,-234.68 1193.84,-247.58 1245.39,-256.6"/>
<polygon fill="black" stroke="black" points="1244.52,-260 1254.97,-258.26 1245.72,-253.1 1244.52,-260"/>
</g>
<!-- genetics_etl.ot_variant_index&#45;&gt;genetics_etl.ot_variant_to_gene -->
<g id="edge42" class="edge">
<title>genetics_etl.ot_variant_index&#45;&gt;genetics_etl.ot_variant_to_gene</title>
<path fill="none" stroke="black" d="M1030.98,-193C1043.99,-193 1058.12,-193 1071.82,-193"/>
<polygon fill="black" stroke="black" points="1071.68,-196.5 1081.68,-193 1071.68,-189.5 1071.68,-196.5"/>
</g>
<!-- genetics_etl.ot_variant_to_gene&#45;&gt;genetics_etl.delete_cluster -->
<g id="edge43" class="edge">
<title>genetics_etl.ot_variant_to_gene&#45;&gt;genetics_etl.delete_cluster</title>
<path fill="none" stroke="black" d="M1204.1,-189.23C1290.15,-185.01 1454.17,-181.62 1590.95,-206 1599.03,-207.44 1607.41,-209.53 1615.56,-211.92"/>
<polygon fill="black" stroke="black" points="1614.47,-215.25 1625.06,-214.88 1616.56,-208.57 1614.47,-215.25"/>
</g>
<!-- genetics_etl.ot_variant_to_gene&#45;&gt;genetics_etl.ot_locus_to_gene_predict -->
<g id="edge44" class="edge">
<title>genetics_etl.ot_variant_to_gene&#45;&gt;genetics_etl.ot_locus_to_gene_predict</title>
<path fill="none" stroke="black" d="M1204.15,-199.47C1263.71,-205.95 1356.07,-216.01 1424.13,-223.41"/>
<polygon fill="black" stroke="black" points="1423.44,-226.86 1433.76,-224.46 1424.19,-219.9 1423.44,-226.86"/>
</g>
<!-- genetics_etl.ot_variant_to_gene&#45;&gt;genetics_etl.ot_locus_to_gene_train -->
<g id="edge45" class="edge">
<title>genetics_etl.ot_variant_to_gene&#45;&gt;genetics_etl.ot_locus_to_gene_train</title>
<path fill="none" stroke="black" d="M1188.51,-211.43C1199.05,-215.87 1210.28,-220.6 1220.7,-225 1237.84,-232.23 1256.52,-240.13 1273.38,-247.26"/>
<polygon fill="black" stroke="black" points="1271.64,-250.33 1282.21,-251 1274.37,-243.88 1271.64,-250.33"/>
</g>
<!-- test_release_folder_exists -->
<g id="node23" class="node">
<title>test_release_folder_exists</title>
<path fill="#ffefeb" stroke="#000000" d="M143.5,-268C143.5,-268 12,-268 12,-268 6,-268 0,-262 0,-256 0,-256 0,-244 0,-244 0,-238 6,-232 12,-232 12,-232 143.5,-232 143.5,-232 149.5,-232 155.5,-238 155.5,-244 155.5,-244 155.5,-256 155.5,-256 155.5,-262 149.5,-268 143.5,-268"/>
<text text-anchor="middle" x="77.75" y="-244.95" font-family="Times,serif" font-size="14.00">test_release_folder_exists</text>
</g>
<!-- test_release_folder_exists&#45;&gt;data_transfer.upstream_join_id -->
<g id="edge47" class="edge">
<title>test_release_folder_exists&#45;&gt;data_transfer.upstream_join_id</title>
<path fill="none" stroke="black" d="M155.76,-250C164.58,-250 172.82,-250 179.63,-250"/>
<polygon fill="black" stroke="black" points="179.51,-253.5 189.51,-250 179.51,-246.5 179.51,-253.5"/>
</g>
</g>
</svg>
