<?xml version="1.0" encoding="UTF-8" standalone="no"?>
<!DOCTYPE svg PUBLIC "-//W3C//DTD SVG 1.1//EN"
 "http://www.w3.org/Graphics/SVG/1.1/DTD/svg11.dtd">
<!-- Generated by graphviz version 11.0.0 (20240428.1522)
 -->
<!-- Title: gnomad_preprocess Pages: 1 -->
<svg width="561pt" height="123pt"
 viewBox="0.00 0.00 561.00 122.50" xmlns="http://www.w3.org/2000/svg" xmlns:xlink="http://www.w3.org/1999/xlink">
<g id="graph0" class="graph" transform="scale(1 1) rotate(0) translate(4 118.5)">
<title>gnomad_preprocess</title>
<polygon fill="white" stroke="none" points="-4,4 -4,-118.5 557,-118.5 557,4 -4,4"/>
<text text-anchor="middle" x="276.5" y="-97.2" font-family="Times,serif" font-size="14.00">gnomad_preprocess</text>
<!-- create_cluster -->
<g id="node1" class="node">
<title>create_cluster</title>
<path fill="#ffffff" stroke="#000000" d="M79,-63C79,-63 12,-63 12,-63 6,-63 0,-57 0,-51 0,-51 0,-39 0,-39 0,-33 6,-27 12,-27 12,-27 79,-27 79,-27 85,-27 91,-33 91,-39 91,-39 91,-51 91,-51 91,-57 85,-63 79,-63"/>
<text text-anchor="middle" x="45.5" y="-39.95" font-family="Times,serif" font-size="14.00">create_cluster</text>
</g>
<!-- install_dependencies -->
<g id="node3" class="node">
<title>install_dependencies</title>
<path fill="#ffffff" stroke="#000000" d="M243.5,-63C243.5,-63 139,-63 139,-63 133,-63 127,-57 127,-51 127,-51 127,-39 127,-39 127,-33 133,-27 139,-27 139,-27 243.5,-27 243.5,-27 249.5,-27 255.5,-33 255.5,-39 255.5,-39 255.5,-51 255.5,-51 255.5,-57 249.5,-63 243.5,-63"/>
<text text-anchor="middle" x="191.25" y="-39.95" font-family="Times,serif" font-size="14.00">install_dependencies</text>
</g>
<!-- create_cluster&#45;&gt;install_dependencies -->
<g id="edge1" class="edge">
<title>create_cluster&#45;&gt;install_dependencies</title>
<path fill="none" stroke="black" d="M91.2,-45C98.9,-45 107.1,-45 115.34,-45"/>
<polygon fill="black" stroke="black" points="115.07,-48.5 125.07,-45 115.07,-41.5 115.07,-48.5"/>
</g>
<!-- delete_cluster -->
<g id="node2" class="node">
<title>delete_cluster</title>
<path fill="#ffffff" stroke="#000000" d="M541,-63C541,-63 474,-63 474,-63 468,-63 462,-57 462,-51 462,-51 462,-39 462,-39 462,-33 468,-27 474,-27 474,-27 541,-27 541,-27 547,-27 553,-33 553,-39 553,-39 553,-51 553,-51 553,-57 547,-63 541,-63"/>
<text text-anchor="middle" x="507.5" y="-39.95" font-family="Times,serif" font-size="14.00">delete_cluster</text>
</g>
<!-- ot_ld_index -->
<g id="node4" class="node">
<title>ot_ld_index</title>
<path fill="#ffffff" stroke="#000000" d="M387,-90C387,-90 330.5,-90 330.5,-90 324.5,-90 318.5,-84 318.5,-78 318.5,-78 318.5,-66 318.5,-66 318.5,-60 324.5,-54 330.5,-54 330.5,-54 387,-54 387,-54 393,-54 399,-60 399,-66 399,-66 399,-78 399,-78 399,-84 393,-90 387,-90"/>
<text text-anchor="middle" x="358.75" y="-66.95" font-family="Times,serif" font-size="14.00">ot_ld_index</text>
</g>
<!-- install_dependencies&#45;&gt;ot_ld_index -->
<g id="edge2" class="edge">
<title>install_dependencies&#45;&gt;ot_ld_index</title>
<path fill="none" stroke="black" d="M255.76,-55.36C272.63,-58.11 290.63,-61.05 306.74,-63.68"/>
<polygon fill="black" stroke="black" points="306.17,-67.13 316.6,-65.29 307.3,-60.22 306.17,-67.13"/>
</g>
<!-- ot_variant_annotation -->
<g id="node5" class="node">
<title>ot_variant_annotation</title>
<path fill="#ffffff" stroke="#000000" d="M414,-36C414,-36 303.5,-36 303.5,-36 297.5,-36 291.5,-30 291.5,-24 291.5,-24 291.5,-12 291.5,-12 291.5,-6 297.5,0 303.5,0 303.5,0 414,0 414,0 420,0 426,-6 426,-12 426,-12 426,-24 426,-24 426,-30 420,-36 414,-36"/>
<text text-anchor="middle" x="358.75" y="-12.95" font-family="Times,serif" font-size="14.00">ot_variant_annotation</text>
</g>
<!-- install_dependencies&#45;&gt;ot_variant_annotation -->
<g id="edge3" class="edge">
<title>install_dependencies&#45;&gt;ot_variant_annotation</title>
<path fill="none" stroke="black" d="M255.76,-34.64C263.63,-33.35 271.75,-32.03 279.8,-30.72"/>
<polygon fill="black" stroke="black" points="280.31,-34.18 289.62,-29.12 279.19,-27.27 280.31,-34.18"/>
</g>
<!-- ot_ld_index&#45;&gt;delete_cluster -->
<g id="edge4" class="edge">
<title>ot_ld_index&#45;&gt;delete_cluster</title>
<path fill="none" stroke="black" d="M399.46,-64.69C415.2,-61.8 433.57,-58.42 450.61,-55.28"/>
<polygon fill="black" stroke="black" points="450.88,-58.79 460.09,-53.54 449.62,-51.91 450.88,-58.79"/>
</g>
<!-- ot_variant_annotation&#45;&gt;delete_cluster -->
<g id="edge5" class="edge">
<title>ot_variant_annotation&#45;&gt;delete_cluster</title>
<path fill="none" stroke="black" d="M426.26,-30.24C434.31,-31.72 442.47,-33.22 450.35,-34.67"/>
<polygon fill="black" stroke="black" points="449.69,-38.11 460.16,-36.47 450.96,-31.22 449.69,-38.11"/>
</g>
</g>
</svg>
