<?xml version="1.0" encoding="UTF-8" standalone="no"?>
<!DOCTYPE svg PUBLIC "-//W3C//DTD SVG 1.1//EN"
 "http://www.w3.org/Graphics/SVG/1.1/DTD/svg11.dtd">
<!-- Generated by graphviz version 11.0.0 (20240428.1522)
 -->
<!-- Title: GWAS_Catalog_dag Pages: 1 -->
<svg width="3112pt" height="297pt"
 viewBox="0.00 0.00 3112.05 296.50" xmlns="http://www.w3.org/2000/svg" xmlns:xlink="http://www.w3.org/1999/xlink">
<g id="graph0" class="graph" transform="scale(1 1) rotate(0) translate(4 292.5)">
<title>GWAS_Catalog_dag</title>
<polygon fill="white" stroke="none" points="-4,4 -4,-292.5 3108.05,-292.5 3108.05,4 -4,4"/>
<text text-anchor="middle" x="1552.03" y="-271.2" font-family="Times,serif" font-size="14.00">GWAS_Catalog_dag</text>
<g id="clust1" class="cluster">
<title>cluster_gwas_catalog_batch_processing</title>
<polygon fill="#6495ed" fill-opacity="0.498039" stroke="#000000" points="2730.65,-56 2730.65,-133 3096.05,-133 3096.05,-56 2730.65,-56"/>
<text text-anchor="middle" x="2913.35" y="-115.7" font-family="Times,serif" font-size="14.00">gwas_catalog_batch_processing</text>
</g>
<g id="clust2" class="cluster">
<title>cluster_manifest_preparation</title>
<polygon fill="#6495ed" fill-opacity="0.498039" stroke="#000000" points="8,-8 8,-256 2710.65,-256 2710.65,-8 8,-8"/>
<text text-anchor="middle" x="1359.33" y="-238.7" font-family="Times,serif" font-size="14.00">manifest_preparation</text>
</g>
<!-- gwas_catalog_batch_processing.upstream_join_id -->
<g id="node1" class="node">
<title>gwas_catalog_batch_processing.upstream_join_id</title>
<ellipse fill="CornflowerBlue" stroke="#000000" cx="2745.85" cy="-82" rx="7.2" ry="7.2"/>
</g>
<!-- gwas_catalog_batch_processing.get_manifests_from_preparation -->
<g id="node3" class="node">
<title>gwas_catalog_batch_processing.get_manifests_from_preparation</title>
<path fill="#ffefeb" stroke="#000000" d="M2970.8,-100C2970.8,-100 2801.05,-100 2801.05,-100 2795.05,-100 2789.05,-94 2789.05,-88 2789.05,-88 2789.05,-76 2789.05,-76 2789.05,-70 2795.05,-64 2801.05,-64 2801.05,-64 2970.8,-64 2970.8,-64 2976.8,-64 2982.8,-70 2982.8,-76 2982.8,-76 2982.8,-88 2982.8,-88 2982.8,-94 2976.8,-100 2970.8,-100"/>
<text text-anchor="middle" x="2885.93" y="-76.95" font-family="Times,serif" font-size="14.00">get_manifests_from_preparation</text>
</g>
<!-- gwas_catalog_batch_processing.upstream_join_id&#45;&gt;gwas_catalog_batch_processing.get_manifests_from_preparation -->
<g id="edge2" class="edge">
<title>gwas_catalog_batch_processing.upstream_join_id&#45;&gt;gwas_catalog_batch_processing.get_manifests_from_preparation</title>
<path fill="none" stroke="black" d="M2753.51,-82C2758.93,-82 2767.29,-82 2777.24,-82"/>
<polygon fill="black" stroke="black" points="2777.06,-85.5 2787.06,-82 2777.06,-78.5 2777.06,-85.5"/>
</g>
<!-- gwas_catalog_batch_processing.batch_job -->
<g id="node2" class="node">
<title>gwas_catalog_batch_processing.batch_job</title>
<path fill="#ffefeb" stroke="#000000" d="M3076.05,-100C3076.05,-100 3030.8,-100 3030.8,-100 3024.8,-100 3018.8,-94 3018.8,-88 3018.8,-88 3018.8,-76 3018.8,-76 3018.8,-70 3024.8,-64 3030.8,-64 3030.8,-64 3076.05,-64 3076.05,-64 3082.05,-64 3088.05,-70 3088.05,-76 3088.05,-76 3088.05,-88 3088.05,-88 3088.05,-94 3082.05,-100 3076.05,-100"/>
<text text-anchor="middle" x="3053.43" y="-76.95" font-family="Times,serif" font-size="14.00">batch_job</text>
</g>
<!-- gwas_catalog_batch_processing.get_manifests_from_preparation&#45;&gt;gwas_catalog_batch_processing.batch_job -->
<g id="edge1" class="edge">
<title>gwas_catalog_batch_processing.get_manifests_from_preparation&#45;&gt;gwas_catalog_batch_processing.batch_job</title>
<path fill="none" stroke="black" d="M2983.2,-82C2991.5,-82 2999.62,-82 3007.21,-82"/>
<polygon fill="black" stroke="black" points="3007.13,-85.5 3017.13,-82 3007.13,-78.5 3007.13,-85.5"/>
</g>
<!-- manifest_preparation.downstream_join_id -->
<g id="node4" class="node">
<title>manifest_preparation.downstream_join_id</title>
<ellipse fill="CornflowerBlue" stroke="#000000" cx="2695.45" cy="-82" rx="7.2" ry="7.2"/>
</g>
<!-- manifest_preparation.downstream_join_id&#45;&gt;gwas_catalog_batch_processing.upstream_join_id -->
<g id="edge6" class="edge">
<title>manifest_preparation.downstream_join_id&#45;&gt;gwas_catalog_batch_processing.upstream_join_id</title>
<path fill="none" stroke="black" d="M2702.78,-82C2708.9,-82 2718.48,-82 2726.95,-82"/>
<polygon fill="black" stroke="black" points="2726.85,-85.5 2736.85,-82 2726.85,-78.5 2726.85,-85.5"/>
</g>
<!-- manifest_preparation.amend_curation_metadata -->
<g id="node5" class="node">
<title>manifest_preparation.amend_curation_metadata</title>
<path fill="#ffefeb" stroke="#000000" d="M1578.25,-133C1578.25,-133 1442.25,-133 1442.25,-133 1436.25,-133 1430.25,-127 1430.25,-121 1430.25,-121 1430.25,-109 1430.25,-109 1430.25,-103 1436.25,-97 1442.25,-97 1442.25,-97 1578.25,-97 1578.25,-97 1584.25,-97 1590.25,-103 1590.25,-109 1590.25,-109 1590.25,-121 1590.25,-121 1590.25,-127 1584.25,-133 1578.25,-133"/>
<text text-anchor="middle" x="1510.25" y="-109.95" font-family="Times,serif" font-size="14.00">amend_curation_metadata</text>
</g>
<!-- manifest_preparation.save_manifests -->
<g id="node16" class="node">
<title>manifest_preparation.save_manifests</title>
<path fill="#ffefeb" stroke="#000000" d="M2019.5,-129C2019.5,-129 1944.25,-129 1944.25,-129 1938.25,-129 1932.25,-123 1932.25,-117 1932.25,-117 1932.25,-105 1932.25,-105 1932.25,-99 1938.25,-93 1944.25,-93 1944.25,-93 2019.5,-93 2019.5,-93 2025.5,-93 2031.5,-99 2031.5,-105 2031.5,-105 2031.5,-117 2031.5,-117 2031.5,-123 2025.5,-129 2019.5,-129"/>
<text text-anchor="middle" x="1981.88" y="-105.95" font-family="Times,serif" font-size="14.00">save_manifests</text>
</g>
<!-- manifest_preparation.amend_curation_metadata&#45;&gt;manifest_preparation.save_manifests -->
<g id="edge3" class="edge">
<title>manifest_preparation.amend_curation_metadata&#45;&gt;manifest_preparation.save_manifests</title>
<path fill="none" stroke="black" d="M1590.65,-114.32C1683.83,-113.53 1836.26,-112.23 1920.38,-111.52"/>
<polygon fill="black" stroke="black" points="1920.3,-115.02 1930.27,-111.43 1920.24,-108.02 1920.3,-115.02"/>
<text text-anchor="middle" x="1761.25" y="-117.2" font-family="Times,serif" font-size="14.00">Amending curation metadata to the generated manifests</text>
</g>
<!-- manifest_preparation.choose_manifest_paths -->
<g id="node6" class="node">
<title>manifest_preparation.choose_manifest_paths</title>
<path fill="#ffefeb" stroke="#000000" d="M2350.5,-100C2350.5,-100 2231.75,-100 2231.75,-100 2225.75,-100 2219.75,-94 2219.75,-88 2219.75,-88 2219.75,-76 2219.75,-76 2219.75,-70 2225.75,-64 2231.75,-64 2231.75,-64 2350.5,-64 2350.5,-64 2356.5,-64 2362.5,-70 2362.5,-76 2362.5,-76 2362.5,-88 2362.5,-88 2362.5,-94 2356.5,-100 2350.5,-100"/>
<text text-anchor="middle" x="2291.12" y="-76.95" font-family="Times,serif" font-size="14.00">choose_manifest_paths</text>
</g>
<!-- manifest_preparation.save_config -->
<g id="node15" class="node">
<title>manifest_preparation.save_config</title>
<path fill="#ffefeb" stroke="#000000" d="M2640.25,-100C2640.25,-100 2583,-100 2583,-100 2577,-100 2571,-94 2571,-88 2571,-88 2571,-76 2571,-76 2571,-70 2577,-64 2583,-64 2583,-64 2640.25,-64 2640.25,-64 2646.25,-64 2652.25,-70 2652.25,-76 2652.25,-76 2652.25,-88 2652.25,-88 2652.25,-94 2646.25,-100 2640.25,-100"/>
<text text-anchor="middle" x="2611.62" y="-76.95" font-family="Times,serif" font-size="14.00">save_config</text>
</g>
<!-- manifest_preparation.choose_manifest_paths&#45;&gt;manifest_preparation.save_config -->
<g id="edge4" class="edge">
<title>manifest_preparation.choose_manifest_paths&#45;&gt;manifest_preparation.save_config</title>
<path fill="none" stroke="black" d="M2362.81,-82C2422.4,-82 2506.24,-82 2559.51,-82"/>
<polygon fill="black" stroke="black" points="2559.2,-85.5 2569.2,-82 2559.2,-78.5 2559.2,-85.5"/>
<text text-anchor="middle" x="2466.75" y="-85.2" font-family="Times,serif" font-size="14.00">Dumping configuration to GCS</text>
</g>
<!-- manifest_preparation.collect_sumstats_and_generate_new_manifests -->
<g id="node7" class="node">
<title>manifest_preparation.collect_sumstats_and_generate_new_manifests</title>
<path fill="#ffefeb" stroke="#000000" d="M1179.75,-138C1179.75,-138 930.5,-138 930.5,-138 924.5,-138 918.5,-132 918.5,-126 918.5,-126 918.5,-114 918.5,-114 918.5,-108 924.5,-102 930.5,-102 930.5,-102 1179.75,-102 1179.75,-102 1185.75,-102 1191.75,-108 1191.75,-114 1191.75,-114 1191.75,-126 1191.75,-126 1191.75,-132 1185.75,-138 1179.75,-138"/>
<text text-anchor="middle" x="1055.13" y="-114.95" font-family="Times,serif" font-size="14.00">collect_sumstats_and_generate_new_manifests</text>
</g>
<!-- manifest_preparation.collect_sumstats_and_generate_new_manifests&#45;&gt;manifest_preparation.amend_curation_metadata -->
<g id="edge5" class="edge">
<title>manifest_preparation.collect_sumstats_and_generate_new_manifests&#45;&gt;manifest_preparation.amend_curation_metadata</title>
<path fill="none" stroke="black" d="M1192.08,-118.5C1265.36,-117.69 1353.79,-116.72 1418.64,-116"/>
<polygon fill="black" stroke="black" points="1418.58,-119.5 1428.54,-115.89 1418.5,-112.5 1418.58,-119.5"/>
<text text-anchor="middle" x="1311" y="-121.2" font-family="Times,serif" font-size="14.00">Generating manifests</text>
</g>
<!-- manifest_preparation.exit_when_no_new_sumstats -->
<g id="node8" class="node">
<title>manifest_preparation.exit_when_no_new_sumstats</title>
<path fill="#ffefeb" stroke="#000000" d="M717.5,-138C717.5,-138 565.75,-138 565.75,-138 559.75,-138 553.75,-132 553.75,-126 553.75,-126 553.75,-114 553.75,-114 553.75,-108 559.75,-102 565.75,-102 565.75,-102 717.5,-102 717.5,-102 723.5,-102 729.5,-108 729.5,-114 729.5,-114 729.5,-126 729.5,-126 729.5,-132 723.5,-138 717.5,-138"/>
<text text-anchor="middle" x="641.62" y="-114.95" font-family="Times,serif" font-size="14.00">exit_when_no_new_sumstats</text>
</g>
<!-- manifest_preparation.exit_when_no_new_sumstats&#45;&gt;manifest_preparation.collect_sumstats_and_generate_new_manifests -->
<g id="edge7" class="edge">
<title>manifest_preparation.exit_when_no_new_sumstats&#45;&gt;manifest_preparation.collect_sumstats_and_generate_new_manifests</title>
<path fill="none" stroke="black" d="M729.89,-120C781.31,-120 847.71,-120 907.01,-120"/>
<polygon fill="black" stroke="black" points="906.87,-123.5 916.87,-120 906.87,-116.5 906.87,-123.5"/>
<text text-anchor="middle" x="824" y="-123.2" font-family="Times,serif" font-size="14.00">Getting list of new sumstats</text>
</g>
<!-- manifest_preparation.get_all_sumstat_paths -->
<g id="node9" class="node">
<title>manifest_preparation.get_all_sumstat_paths</title>
<path fill="#ffefeb" stroke="#000000" d="M500.25,-192C500.25,-192 387.5,-192 387.5,-192 381.5,-192 375.5,-186 375.5,-180 375.5,-180 375.5,-168 375.5,-168 375.5,-162 381.5,-156 387.5,-156 387.5,-156 500.25,-156 500.25,-156 506.25,-156 512.25,-162 512.25,-168 512.25,-168 512.25,-180 512.25,-180 512.25,-186 506.25,-192 500.25,-192"/>
<text text-anchor="middle" x="443.88" y="-168.95" font-family="Times,serif" font-size="14.00">get_all_sumstat_paths</text>
</g>
<!-- manifest_preparation.get_all_sumstat_paths&#45;&gt;manifest_preparation.collect_sumstats_and_generate_new_manifests -->
<g id="edge8" class="edge">
<title>manifest_preparation.get_all_sumstat_paths&#45;&gt;manifest_preparation.collect_sumstats_and_generate_new_manifests</title>
<path fill="none" stroke="black" d="M512.54,-170.45C601.62,-165.46 763.05,-155.36 900.5,-141 904.18,-140.62 907.91,-140.21 911.67,-139.79"/>
<polygon fill="black" stroke="black" points="912,-143.28 921.53,-138.66 911.2,-136.32 912,-143.28"/>
<text text-anchor="middle" x="641.62" y="-171.2" font-family="Times,serif" font-size="14.00">Getting list of all sumstats</text>
</g>
<!-- manifest_preparation.get_execution_mode -->
<g id="node10" class="node">
<title>manifest_preparation.get_execution_mode</title>
<path fill="#ffefeb" stroke="#000000" d="M139.25,-138C139.25,-138 34,-138 34,-138 28,-138 22,-132 22,-126 22,-126 22,-114 22,-114 22,-108 28,-102 34,-102 34,-102 139.25,-102 139.25,-102 145.25,-102 151.25,-108 151.25,-114 151.25,-114 151.25,-126 151.25,-126 151.25,-132 145.25,-138 139.25,-138"/>
<text text-anchor="middle" x="86.62" y="-114.95" font-family="Times,serif" font-size="14.00">get_execution_mode</text>
</g>
<!-- manifest_preparation.get_execution_mode&#45;&gt;manifest_preparation.get_all_sumstat_paths -->
<g id="edge9" class="edge">
<title>manifest_preparation.get_execution_mode&#45;&gt;manifest_preparation.get_all_sumstat_paths</title>
<path fill="none" stroke="black" d="M151.65,-133.7C159.58,-135.24 167.59,-136.71 175.25,-138 253.83,-151.25 274.04,-150.79 353,-161.5 356.59,-161.99 360.26,-162.49 363.97,-162.99"/>
<polygon fill="black" stroke="black" points="363.28,-166.43 373.66,-164.33 364.23,-159.5 363.28,-166.43"/>
<text text-anchor="middle" x="264.12" y="-164.2" font-family="Times,serif" font-size="14.00">Forcing rerun on all sumstats</text>
</g>
<!-- manifest_preparation.get_new_sumstat_paths -->
<g id="node11" class="node">
<title>manifest_preparation.get_new_sumstat_paths</title>
<path fill="#ffefeb" stroke="#000000" d="M504.75,-138C504.75,-138 383,-138 383,-138 377,-138 371,-132 371,-126 371,-126 371,-114 371,-114 371,-108 377,-102 383,-102 383,-102 504.75,-102 504.75,-102 510.75,-102 516.75,-108 516.75,-114 516.75,-114 516.75,-126 516.75,-126 516.75,-132 510.75,-138 504.75,-138"/>
<text text-anchor="middle" x="443.88" y="-114.95" font-family="Times,serif" font-size="14.00">get_new_sumstat_paths</text>
</g>
<!-- manifest_preparation.get_execution_mode&#45;&gt;manifest_preparation.get_new_sumstat_paths -->
<g id="edge10" class="edge">
<title>manifest_preparation.get_execution_mode&#45;&gt;manifest_preparation.get_new_sumstat_paths</title>
<path fill="none" stroke="black" d="M151.55,-120C209.68,-120 295.85,-120 359.41,-120"/>
<polygon fill="black" stroke="black" points="359.08,-123.5 369.08,-120 359.08,-116.5 359.08,-123.5"/>
<text text-anchor="middle" x="264.12" y="-123.2" font-family="Times,serif" font-size="14.00">Running only on new sumstats</text>
</g>
<!-- manifest_preparation.read_manifests -->
<g id="node14" class="node">
<title>manifest_preparation.read_manifests</title>
<path fill="#ffefeb" stroke="#000000" d="M481.12,-84C481.12,-84 406.62,-84 406.62,-84 400.62,-84 394.62,-78 394.62,-72 394.62,-72 394.62,-60 394.62,-60 394.62,-54 400.62,-48 406.62,-48 406.62,-48 481.12,-48 481.12,-48 487.12,-48 493.12,-54 493.12,-60 493.12,-60 493.12,-72 493.12,-72 493.12,-78 487.12,-84 481.12,-84"/>
<text text-anchor="middle" x="443.88" y="-60.95" font-family="Times,serif" font-size="14.00">read_manifests</text>
</g>
<!-- manifest_preparation.get_execution_mode&#45;&gt;manifest_preparation.read_manifests -->
<g id="edge11" class="edge">
<title>manifest_preparation.get_execution_mode&#45;&gt;manifest_preparation.read_manifests</title>
<path fill="none" stroke="black" d="M151.59,-104.22C159.53,-102.5 167.56,-100.88 175.25,-99.5 246.25,-86.79 328.71,-77.24 383.12,-71.66"/>
<polygon fill="black" stroke="black" points="383.19,-75.17 392.79,-70.68 382.49,-68.21 383.19,-75.17"/>
<text text-anchor="middle" x="264.12" y="-102.2" font-family="Times,serif" font-size="14.00">Resume from existing manifests</text>
</g>
<!-- manifest_preparation.get_new_sumstat_paths&#45;&gt;manifest_preparation.exit_when_no_new_sumstats -->
<g id="edge12" class="edge">
<title>manifest_preparation.get_new_sumstat_paths&#45;&gt;manifest_preparation.exit_when_no_new_sumstats</title>
<path fill="none" stroke="black" d="M517.21,-120C525.3,-120 533.63,-120 541.98,-120"/>
<polygon fill="black" stroke="black" points="541.82,-123.5 551.82,-120 541.82,-116.5 541.82,-123.5"/>
</g>
<!-- manifest_preparation.list_existing_manifests -->
<g id="node12" class="node">
<title>manifest_preparation.list_existing_manifests</title>
<path fill="#f0eee4" stroke="#000000" d="M145.25,-63C145.25,-63 28,-63 28,-63 22,-63 16,-57 16,-51 16,-51 16,-39 16,-39 16,-33 22,-27 28,-27 28,-27 145.25,-27 145.25,-27 151.25,-27 157.25,-33 157.25,-39 157.25,-39 157.25,-51 157.25,-51 157.25,-57 151.25,-63 145.25,-63"/>
<text text-anchor="middle" x="86.62" y="-39.95" font-family="Times,serif" font-size="14.00">list_existing_manifests</text>
</g>
<!-- manifest_preparation.list_existing_manifests&#45;&gt;manifest_preparation.get_new_sumstat_paths -->
<g id="edge13" class="edge">
<title>manifest_preparation.list_existing_manifests&#45;&gt;manifest_preparation.get_new_sumstat_paths</title>
<path fill="none" stroke="black" d="M157.5,-37.7C213.6,-35.05 292.69,-38.73 353,-71 364.14,-76.96 360.73,-85.64 371,-93 372.53,-94.09 374.1,-95.15 375.72,-96.17"/>
<polygon fill="black" stroke="black" points="373.59,-98.99 384.02,-100.85 377.03,-92.89 373.59,-98.99"/>
</g>
<!-- manifest_preparation.list_existing_manifests&#45;&gt;manifest_preparation.read_manifests -->
<g id="edge14" class="edge">
<title>manifest_preparation.list_existing_manifests&#45;&gt;manifest_preparation.read_manifests</title>
<path fill="none" stroke="black" d="M157.74,-40.03C211.4,-37.37 287.13,-36.06 353,-44 362.85,-45.19 373.18,-47.08 383.18,-49.28"/>
<polygon fill="black" stroke="black" points="382.28,-52.66 392.82,-51.51 383.87,-45.84 382.28,-52.66"/>
</g>
<!-- manifest_preparation.list_raw_harmonised -->
<g id="node13" class="node">
<title>manifest_preparation.list_raw_harmonised</title>
<path fill="#f0eee4" stroke="#000000" d="M139.62,-220C139.62,-220 33.62,-220 33.62,-220 27.63,-220 21.62,-214 21.62,-208 21.62,-208 21.62,-196 21.62,-196 21.62,-190 27.62,-184 33.62,-184 33.62,-184 139.62,-184 139.62,-184 145.62,-184 151.62,-190 151.62,-196 151.62,-196 151.62,-208 151.62,-208 151.62,-214 145.62,-220 139.62,-220"/>
<text text-anchor="middle" x="86.62" y="-196.95" font-family="Times,serif" font-size="14.00">list_raw_harmonised</text>
</g>
<!-- manifest_preparation.list_raw_harmonised&#45;&gt;manifest_preparation.get_all_sumstat_paths -->
<g id="edge15" class="edge">
<title>manifest_preparation.list_raw_harmonised&#45;&gt;manifest_preparation.get_all_sumstat_paths</title>
<path fill="none" stroke="black" d="M152.09,-206.91C206.08,-209.79 284.99,-211.13 353,-201 361.72,-199.7 370.78,-197.74 379.63,-195.46"/>
<polygon fill="black" stroke="black" points="380.52,-198.85 389.24,-192.83 378.67,-192.1 380.52,-198.85"/>
</g>
<!-- manifest_preparation.list_raw_harmonised&#45;&gt;manifest_preparation.get_new_sumstat_paths -->
<g id="edge16" class="edge">
<title>manifest_preparation.list_raw_harmonised&#45;&gt;manifest_preparation.get_new_sumstat_paths</title>
<path fill="none" stroke="black" d="M151.88,-202.84C219.57,-202.57 320.77,-198.54 353,-178 366.43,-169.44 358.84,-157.29 371,-147 371.94,-146.2 372.91,-145.43 373.9,-144.68"/>
<polygon fill="black" stroke="black" points="375.64,-147.72 382.07,-139.31 371.79,-141.87 375.64,-147.72"/>
</g>
<!-- manifest_preparation.read_manifests&#45;&gt;manifest_preparation.choose_manifest_paths -->
<g id="edge17" class="edge">
<title>manifest_preparation.read_manifests&#45;&gt;manifest_preparation.choose_manifest_paths</title>
<path fill="none" stroke="black" d="M493.54,-67.55C533.14,-68.67 590.49,-70 640.62,-70 640.62,-70 640.62,-70 1982.88,-70 2059.26,-70 2146.25,-73.75 2208.12,-77.06"/>
<polygon fill="black" stroke="black" points="2207.69,-80.54 2217.86,-77.59 2208.07,-73.55 2207.69,-80.54"/>
<text text-anchor="middle" x="1311" y="-73.2" font-family="Times,serif" font-size="14.00">Filtering manifests by curation status</text>
</g>
<!-- manifest_preparation.save_config&#45;&gt;manifest_preparation.downstream_join_id -->
<g id="edge18" class="edge">
<title>manifest_preparation.save_config&#45;&gt;manifest_preparation.downstream_join_id</title>
<path fill="none" stroke="black" d="M2652.58,-82C2660.99,-82 2669.46,-82 2676.56,-82"/>
<polygon fill="black" stroke="black" points="2676.33,-85.5 2686.33,-82 2676.33,-78.5 2676.33,-85.5"/>
</g>
<!-- manifest_preparation.save_manifests&#45;&gt;manifest_preparation.choose_manifest_paths -->
<g id="edge19" class="edge">
<title>manifest_preparation.save_manifests&#45;&gt;manifest_preparation.choose_manifest_paths</title>
<path fill="none" stroke="black" d="M2031.9,-106.37C2079.21,-101.91 2151.73,-95.06 2207.89,-89.76"/>
<polygon fill="black" stroke="black" points="2208.12,-93.26 2217.74,-88.83 2207.46,-86.29 2208.12,-93.26"/>
<text text-anchor="middle" x="2125.62" y="-106.2" font-family="Times,serif" font-size="14.00">Dumping manifests to GCS</text>
</g>
</g>
</svg>
