<?xml version="1.0" encoding="UTF-8" standalone="no"?>
<!DOCTYPE svg PUBLIC "-//W3C//DTD SVG 1.1//EN"
 "http://www.w3.org/Graphics/SVG/1.1/DTD/svg11.dtd">
<!-- Generated by graphviz version 11.0.0 (20240428.1522)
 -->
<!-- Title: gwas_catalog_harmonisation Pages: 1 -->
<svg width="714pt" height="123pt"
 viewBox="0.00 0.00 713.50 122.50" xmlns="http://www.w3.org/2000/svg" xmlns:xlink="http://www.w3.org/1999/xlink">
<g id="graph0" class="graph" transform="scale(1 1) rotate(0) translate(4 118.5)">
<title>gwas_catalog_harmonisation</title>
<polygon fill="white" stroke="none" points="-4,4 -4,-118.5 709.5,-118.5 709.5,4 -4,4"/>
<text text-anchor="middle" x="352.75" y="-97.2" font-family="Times,serif" font-size="14.00">gwas_catalog_harmonisation</text>
<!-- create_cluster -->
<g id="node1" class="node">
<title>create_cluster</title>
<path fill="#ffffff" stroke="#000000" d="M410.25,-63C410.25,-63 343.25,-63 343.25,-63 337.25,-63 331.25,-57 331.25,-51 331.25,-51 331.25,-39 331.25,-39 331.25,-33 337.25,-27 343.25,-27 343.25,-27 410.25,-27 410.25,-27 416.25,-27 422.25,-33 422.25,-39 422.25,-39 422.25,-51 422.25,-51 422.25,-57 416.25,-63 410.25,-63"/>
<text text-anchor="middle" x="376.75" y="-39.95" font-family="Times,serif" font-size="14.00">create_cluster</text>
</g>
<!-- install_dependencies -->
<g id="node3" class="node">
<title>install_dependencies</title>
<path fill="#ffffff" stroke="#000000" d="M574.75,-63C574.75,-63 470.25,-63 470.25,-63 464.25,-63 458.25,-57 458.25,-51 458.25,-51 458.25,-39 458.25,-39 458.25,-33 464.25,-27 470.25,-27 470.25,-27 574.75,-27 574.75,-27 580.75,-27 586.75,-33 586.75,-39 586.75,-39 586.75,-51 586.75,-51 586.75,-57 580.75,-63 574.75,-63"/>
<text text-anchor="middle" x="522.5" y="-39.95" font-family="Times,serif" font-size="14.00">install_dependencies</text>
</g>
<!-- create_cluster&#45;&gt;install_dependencies -->
<g id="edge1" class="edge">
<title>create_cluster&#45;&gt;install_dependencies</title>
<path fill="none" stroke="black" d="M422.45,-45C430.15,-45 438.35,-45 446.59,-45"/>
<polygon fill="black" stroke="black" points="446.32,-48.5 456.32,-45 446.32,-41.5 446.32,-48.5"/>
</g>
<!-- create_to_do_list -->
<g id="node2" class="node">
<title>create_to_do_list</title>
<path fill="#ffefeb" stroke="#000000" d="M283.25,-63C283.25,-63 198.25,-63 198.25,-63 192.25,-63 186.25,-57 186.25,-51 186.25,-51 186.25,-39 186.25,-39 186.25,-33 192.25,-27 198.25,-27 198.25,-27 283.25,-27 283.25,-27 289.25,-27 295.25,-33 295.25,-39 295.25,-39 295.25,-51 295.25,-51 295.25,-57 289.25,-63 283.25,-63"/>
<text text-anchor="middle" x="240.75" y="-39.95" font-family="Times,serif" font-size="14.00">create_to_do_list</text>
</g>
<!-- create_to_do_list&#45;&gt;create_cluster -->
<g id="edge2" class="edge">
<title>create_to_do_list&#45;&gt;create_cluster</title>
<path fill="none" stroke="black" d="M295.48,-45C303.41,-45 311.59,-45 319.56,-45"/>
<polygon fill="black" stroke="black" points="319.53,-48.5 329.53,-45 319.53,-41.5 319.53,-48.5"/>
</g>
<!-- submit_jobs -->
<g id="node6" class="node">
<title>submit_jobs</title>
<path fill="#ffefeb" stroke="#000000" d="M693.5,-63C693.5,-63 634.75,-63 634.75,-63 628.75,-63 622.75,-57 622.75,-51 622.75,-51 622.75,-39 622.75,-39 622.75,-33 628.75,-27 634.75,-27 634.75,-27 693.5,-27 693.5,-27 699.5,-27 705.5,-33 705.5,-39 705.5,-39 705.5,-51 705.5,-51 705.5,-57 699.5,-63 693.5,-63"/>
<text text-anchor="middle" x="664.12" y="-39.95" font-family="Times,serif" font-size="14.00">submit_jobs</text>
</g>
<!-- install_dependencies&#45;&gt;submit_jobs -->
<g id="edge3" class="edge">
<title>install_dependencies&#45;&gt;submit_jobs</title>
<path fill="none" stroke="black" d="M587.18,-45C595.11,-45 603.15,-45 610.87,-45"/>
<polygon fill="black" stroke="black" points="610.8,-48.5 620.8,-45 610.8,-41.5 610.8,-48.5"/>
</g>
<!-- list_harmonised_parquet -->
<g id="node4" class="node">
<title>list_harmonised_parquet</title>
<path fill="#f0eee4" stroke="#000000" d="M138.25,-90C138.25,-90 12,-90 12,-90 6,-90 0,-84 0,-78 0,-78 0,-66 0,-66 0,-60 6,-54 12,-54 12,-54 138.25,-54 138.25,-54 144.25,-54 150.25,-60 150.25,-66 150.25,-66 150.25,-78 150.25,-78 150.25,-84 144.25,-90 138.25,-90"/>
<text text-anchor="middle" x="75.12" y="-66.95" font-family="Times,serif" font-size="14.00">list_harmonised_parquet</text>
</g>
<!-- list_harmonised_parquet&#45;&gt;create_to_do_list -->
<g id="edge4" class="edge">
<title>list_harmonised_parquet&#45;&gt;create_to_do_list</title>
<path fill="none" stroke="black" d="M150.28,-59.76C158.44,-58.42 166.7,-57.05 174.74,-55.73"/>
<polygon fill="black" stroke="black" points="175.13,-59.21 184.42,-54.13 173.99,-52.3 175.13,-59.21"/>
</g>
<!-- list_raw_harmonised -->
<g id="node5" class="node">
<title>list_raw_harmonised</title>
<path fill="#f0eee4" stroke="#000000" d="M128.12,-36C128.12,-36 22.12,-36 22.12,-36 16.13,-36 10.12,-30 10.12,-24 10.12,-24 10.12,-12 10.12,-12 10.12,-6 16.12,0 22.12,0 22.12,0 128.12,0 128.12,0 134.12,0 140.12,-6 140.12,-12 140.12,-12 140.12,-24 140.12,-24 140.12,-30 134.12,-36 128.12,-36"/>
<text text-anchor="middle" x="75.12" y="-12.95" font-family="Times,serif" font-size="14.00">list_raw_harmonised</text>
</g>
<!-- list_raw_harmonised&#45;&gt;create_to_do_list -->
<g id="edge5" class="edge">
<title>list_raw_harmonised&#45;&gt;create_to_do_list</title>
<path fill="none" stroke="black" d="M140.32,-28.59C151.61,-30.46 163.36,-32.39 174.66,-34.26"/>
<polygon fill="black" stroke="black" points="173.85,-37.67 184.29,-35.85 174.99,-30.77 173.85,-37.67"/>
</g>
</g>
</svg>
