<?xml version="1.0" encoding="UTF-8" standalone="no"?>
<!DOCTYPE svg PUBLIC "-//W3C//DTD SVG 1.1//EN"
 "http://www.w3.org/Graphics/SVG/1.1/DTD/svg11.dtd">
<!-- Generated by graphviz version 11.0.0 (20240428.1522)
 -->
<!-- Title: gwas_catalog_preprocess Pages: 1 -->
<svg width="2600pt" height="126pt"
 viewBox="0.00 0.00 2600.10 125.50" xmlns="http://www.w3.org/2000/svg" xmlns:xlink="http://www.w3.org/1999/xlink">
<g id="graph0" class="graph" transform="scale(1 1) rotate(0) translate(4 121.5)">
<title>gwas_catalog_preprocess</title>
<polygon fill="white" stroke="none" points="-4,4 -4,-121.5 2596.1,-121.5 2596.1,4 -4,4"/>
<text text-anchor="middle" x="1296.05" y="-100.2" font-family="Times,serif" font-size="14.00">gwas_catalog_preprocess</text>
<g id="clust1" class="cluster">
<title>cluster_curation_processing</title>
<polygon fill="#6495ed" fill-opacity="0.498039" stroke="#000000" points="569,-8 569,-85 1499.8,-85 1499.8,-8 569,-8"/>
<text text-anchor="middle" x="1034.4" y="-67.7" font-family="Times,serif" font-size="14.00">curation_processing</text>
</g>
<g id="clust2" class="cluster">
<title>cluster_summary_statistics_processing</title>
<polygon fill="#6495ed" fill-opacity="0.498039" stroke="#000000" points="1519.8,-8 1519.8,-85 2473.1,-85 2473.1,-8 1519.8,-8"/>
<text text-anchor="middle" x="1996.45" y="-67.7" font-family="Times,serif" font-size="14.00">summary_statistics_processing</text>
</g>
<!-- create_cluster -->
<g id="node1" class="node">
<title>create_cluster</title>
<path fill="#ffffff" stroke="#000000" d="M79,-52C79,-52 12,-52 12,-52 6,-52 0,-46 0,-40 0,-40 0,-28 0,-28 0,-22 6,-16 12,-16 12,-16 79,-16 79,-16 85,-16 91,-22 91,-28 91,-28 91,-40 91,-40 91,-46 85,-52 79,-52"/>
<text text-anchor="middle" x="45.5" y="-28.95" font-family="Times,serif" font-size="14.00">create_cluster</text>
</g>
<!-- install_dependencies -->
<g id="node9" class="node">
<title>install_dependencies</title>
<path fill="#ffffff" stroke="#000000" d="M243.5,-52C243.5,-52 139,-52 139,-52 133,-52 127,-46 127,-40 127,-40 127,-28 127,-28 127,-22 133,-16 139,-16 139,-16 243.5,-16 243.5,-16 249.5,-16 255.5,-22 255.5,-28 255.5,-28 255.5,-40 255.5,-40 255.5,-46 249.5,-52 243.5,-52"/>
<text text-anchor="middle" x="191.25" y="-28.95" font-family="Times,serif" font-size="14.00">install_dependencies</text>
</g>
<!-- create_cluster&#45;&gt;install_dependencies -->
<g id="edge1" class="edge">
<title>create_cluster&#45;&gt;install_dependencies</title>
<path fill="none" stroke="black" d="M91.2,-34C98.9,-34 107.1,-34 115.34,-34"/>
<polygon fill="black" stroke="black" points="115.07,-37.5 125.07,-34 115.07,-30.5 115.07,-37.5"/>
</g>
<!-- curation_processing.upstream_join_id -->
<g id="node2" class="node">
<title>curation_processing.upstream_join_id</title>
<ellipse fill="CornflowerBlue" stroke="#000000" cx="584.2" cy="-34" rx="7.2" ry="7.2"/>
</g>
<!-- curation_processing.catalog_curation_inclusion_list -->
<g id="node4" class="node">
<title>curation_processing.catalog_curation_inclusion_list</title>
<path fill="#ffffff" stroke="#000000" d="M800.9,-52C800.9,-52 639.4,-52 639.4,-52 633.4,-52 627.4,-46 627.4,-40 627.4,-40 627.4,-28 627.4,-28 627.4,-22 633.4,-16 639.4,-16 639.4,-16 800.9,-16 800.9,-16 806.9,-16 812.9,-22 812.9,-28 812.9,-28 812.9,-40 812.9,-40 812.9,-46 806.9,-52 800.9,-52"/>
<text text-anchor="middle" x="720.15" y="-28.95" font-family="Times,serif" font-size="14.00">catalog_curation_inclusion_list</text>
</g>
<!-- curation_processing.upstream_join_id&#45;&gt;curation_processing.catalog_curation_inclusion_list -->
<g id="edge7" class="edge">
<title>curation_processing.upstream_join_id&#45;&gt;curation_processing.catalog_curation_inclusion_list</title>
<path fill="none" stroke="black" d="M591.66,-34C597.07,-34 605.51,-34 615.53,-34"/>
<polygon fill="black" stroke="black" points="615.44,-37.5 625.44,-34 615.43,-30.5 615.44,-37.5"/>
</g>
<!-- curation_processing.downstream_join_id -->
<g id="node3" class="node">
<title>curation_processing.downstream_join_id</title>
<ellipse fill="CornflowerBlue" stroke="#000000" cx="1484.6" cy="-34" rx="7.2" ry="7.2"/>
</g>
<!-- summary_statistics_processing.upstream_join_id -->
<g id="node11" class="node">
<title>summary_statistics_processing.upstream_join_id</title>
<ellipse fill="CornflowerBlue" stroke="#000000" cx="1535" cy="-34" rx="7.2" ry="7.2"/>
</g>
<!-- curation_processing.downstream_join_id&#45;&gt;summary_statistics_processing.upstream_join_id -->
<g id="edge5" class="edge">
<title>curation_processing.downstream_join_id&#45;&gt;summary_statistics_processing.upstream_join_id</title>
<path fill="none" stroke="black" d="M1491.93,-34C1498.05,-34 1507.63,-34 1516.1,-34"/>
<polygon fill="black" stroke="black" points="1516,-37.5 1526,-34 1516,-30.5 1516,-37.5"/>
</g>
<!-- curation_processing.ingest_curated_gwas_catalog_data -->
<g id="node7" class="node">
<title>curation_processing.ingest_curated_gwas_catalog_data</title>
<path fill="#ffffff" stroke="#000000" d="M1041.15,-52C1041.15,-52 860.9,-52 860.9,-52 854.9,-52 848.9,-46 848.9,-40 848.9,-40 848.9,-28 848.9,-28 848.9,-22 854.9,-16 860.9,-16 860.9,-16 1041.15,-16 1041.15,-16 1047.15,-16 1053.15,-22 1053.15,-28 1053.15,-28 1053.15,-40 1053.15,-40 1053.15,-46 1047.15,-52 1041.15,-52"/>
<text text-anchor="middle" x="951.02" y="-28.95" font-family="Times,serif" font-size="14.00">ingest_curated_gwas_catalog_data</text>
</g>
<!-- curation_processing.catalog_curation_inclusion_list&#45;&gt;curation_processing.ingest_curated_gwas_catalog_data -->
<g id="edge2" class="edge">
<title>curation_processing.catalog_curation_inclusion_list&#45;&gt;curation_processing.ingest_curated_gwas_catalog_data</title>
<path fill="none" stroke="black" d="M813.25,-34C821.19,-34 829.27,-34 837.35,-34"/>
<polygon fill="black" stroke="black" points="837.22,-37.5 847.22,-34 837.22,-30.5 837.22,-37.5"/>
</g>
<!-- curation_processing.catalog_curation_ld_clumping -->
<g id="node5" class="node">
<title>curation_processing.catalog_curation_ld_clumping</title>
<path fill="#ffffff" stroke="#000000" d="M1258.9,-52C1258.9,-52 1101.15,-52 1101.15,-52 1095.15,-52 1089.15,-46 1089.15,-40 1089.15,-40 1089.15,-28 1089.15,-28 1089.15,-22 1095.15,-16 1101.15,-16 1101.15,-16 1258.9,-16 1258.9,-16 1264.9,-16 1270.9,-22 1270.9,-28 1270.9,-28 1270.9,-40 1270.9,-40 1270.9,-46 1264.9,-52 1258.9,-52"/>
<text text-anchor="middle" x="1180.02" y="-28.95" font-family="Times,serif" font-size="14.00">catalog_curation_ld_clumping</text>
</g>
<!-- curation_processing.catalog_curation_pics -->
<g id="node6" class="node">
<title>curation_processing.catalog_curation_pics</title>
<path fill="#ffffff" stroke="#000000" d="M1429.4,-52C1429.4,-52 1318.9,-52 1318.9,-52 1312.9,-52 1306.9,-46 1306.9,-40 1306.9,-40 1306.9,-28 1306.9,-28 1306.9,-22 1312.9,-16 1318.9,-16 1318.9,-16 1429.4,-16 1429.4,-16 1435.4,-16 1441.4,-22 1441.4,-28 1441.4,-28 1441.4,-40 1441.4,-40 1441.4,-46 1435.4,-52 1429.4,-52"/>
<text text-anchor="middle" x="1374.15" y="-28.95" font-family="Times,serif" font-size="14.00">catalog_curation_pics</text>
</g>
<!-- curation_processing.catalog_curation_ld_clumping&#45;&gt;curation_processing.catalog_curation_pics -->
<g id="edge3" class="edge">
<title>curation_processing.catalog_curation_ld_clumping&#45;&gt;curation_processing.catalog_curation_pics</title>
<path fill="none" stroke="black" d="M1271.18,-34C1279.17,-34 1287.22,-34 1295.1,-34"/>
<polygon fill="black" stroke="black" points="1294.98,-37.5 1304.98,-34 1294.98,-30.5 1294.98,-37.5"/>
</g>
<!-- curation_processing.catalog_curation_pics&#45;&gt;curation_processing.downstream_join_id -->
<g id="edge4" class="edge">
<title>curation_processing.catalog_curation_pics&#45;&gt;curation_processing.downstream_join_id</title>
<path fill="none" stroke="black" d="M1441.67,-34C1450.43,-34 1458.73,-34 1465.61,-34"/>
<polygon fill="black" stroke="black" points="1465.58,-37.5 1475.58,-34 1465.58,-30.5 1465.58,-37.5"/>
</g>
<!-- curation_processing.ingest_curated_gwas_catalog_data&#45;&gt;curation_processing.catalog_curation_ld_clumping -->
<g id="edge6" class="edge">
<title>curation_processing.ingest_curated_gwas_catalog_data&#45;&gt;curation_processing.catalog_curation_ld_clumping</title>
<path fill="none" stroke="black" d="M1053.57,-34C1061.6,-34 1069.7,-34 1077.72,-34"/>
<polygon fill="black" stroke="black" points="1077.48,-37.5 1087.48,-34 1077.48,-30.5 1077.48,-37.5"/>
</g>
<!-- delete_cluster -->
<g id="node8" class="node">
<title>delete_cluster</title>
<path fill="#ffffff" stroke="#000000" d="M2580.1,-52C2580.1,-52 2513.1,-52 2513.1,-52 2507.1,-52 2501.1,-46 2501.1,-40 2501.1,-40 2501.1,-28 2501.1,-28 2501.1,-22 2507.1,-16 2513.1,-16 2513.1,-16 2580.1,-16 2580.1,-16 2586.1,-16 2592.1,-22 2592.1,-28 2592.1,-28 2592.1,-40 2592.1,-40 2592.1,-46 2586.1,-52 2580.1,-52"/>
<text text-anchor="middle" x="2546.6" y="-28.95" font-family="Times,serif" font-size="14.00">delete_cluster</text>
</g>
<!-- list_harmonised_parquet -->
<g id="node10" class="node">
<title>list_harmonised_parquet</title>
<path fill="#f0eee4" stroke="#000000" d="M429.75,-52C429.75,-52 303.5,-52 303.5,-52 297.5,-52 291.5,-46 291.5,-40 291.5,-40 291.5,-28 291.5,-28 291.5,-22 297.5,-16 303.5,-16 303.5,-16 429.75,-16 429.75,-16 435.75,-16 441.75,-22 441.75,-28 441.75,-28 441.75,-40 441.75,-40 441.75,-46 435.75,-52 429.75,-52"/>
<text text-anchor="middle" x="366.62" y="-28.95" font-family="Times,serif" font-size="14.00">list_harmonised_parquet</text>
</g>
<!-- install_dependencies&#45;&gt;list_harmonised_parquet -->
<g id="edge8" class="edge">
<title>install_dependencies&#45;&gt;list_harmonised_parquet</title>
<path fill="none" stroke="black" d="M255.82,-34C263.64,-34 271.73,-34 279.81,-34"/>
<polygon fill="black" stroke="black" points="279.68,-37.5 289.68,-34 279.68,-30.5 279.68,-37.5"/>
</g>
<!-- uploader -->
<g id="node17" class="node">
<title>uploader</title>
<path fill="#ffefeb" stroke="#000000" d="M529,-52C529,-52 489.75,-52 489.75,-52 483.75,-52 477.75,-46 477.75,-40 477.75,-40 477.75,-28 477.75,-28 477.75,-22 483.75,-16 489.75,-16 489.75,-16 529,-16 529,-16 535,-16 541,-22 541,-28 541,-28 541,-40 541,-40 541,-46 535,-52 529,-52"/>
<text text-anchor="middle" x="509.38" y="-28.95" font-family="Times,serif" font-size="14.00">uploader</text>
</g>
<!-- list_harmonised_parquet&#45;&gt;uploader -->
<g id="edge9" class="edge">
<title>list_harmonised_parquet&#45;&gt;uploader</title>
<path fill="none" stroke="black" d="M442.12,-34C450.26,-34 458.32,-34 465.87,-34"/>
<polygon fill="black" stroke="black" points="465.74,-37.5 475.74,-34 465.74,-30.5 465.74,-37.5"/>
</g>
<!-- summary_statistics_processing.catalog_sumstats_inclusion_list -->
<g id="node13" class="node">
<title>summary_statistics_processing.catalog_sumstats_inclusion_list</title>
<path fill="#ffffff" stroke="#000000" d="M1754.7,-52C1754.7,-52 1590.2,-52 1590.2,-52 1584.2,-52 1578.2,-46 1578.2,-40 1578.2,-40 1578.2,-28 1578.2,-28 1578.2,-22 1584.2,-16 1590.2,-16 1590.2,-16 1754.7,-16 1754.7,-16 1760.7,-16 1766.7,-22 1766.7,-28 1766.7,-28 1766.7,-40 1766.7,-40 1766.7,-46 1760.7,-52 1754.7,-52"/>
<text text-anchor="middle" x="1672.45" y="-28.95" font-family="Times,serif" font-size="14.00">catalog_sumstats_inclusion_list</text>
</g>
<!-- summary_statistics_processing.upstream_join_id&#45;&gt;summary_statistics_processing.catalog_sumstats_inclusion_list -->
<g id="edge15" class="edge">
<title>summary_statistics_processing.upstream_join_id&#45;&gt;summary_statistics_processing.catalog_sumstats_inclusion_list</title>
<path fill="none" stroke="black" d="M1542.53,-34C1547.97,-34 1556.42,-34 1566.45,-34"/>
<polygon fill="black" stroke="black" points="1566.38,-37.5 1576.38,-34 1566.38,-30.5 1566.38,-37.5"/>
</g>
<!-- summary_statistics_processing.downstream_join_id -->
<g id="node12" class="node">
<title>summary_statistics_processing.downstream_join_id</title>
<ellipse fill="CornflowerBlue" stroke="#000000" cx="2457.9" cy="-34" rx="7.2" ry="7.2"/>
</g>
<!-- summary_statistics_processing.downstream_join_id&#45;&gt;delete_cluster -->
<g id="edge14" class="edge">
<title>summary_statistics_processing.downstream_join_id&#45;&gt;delete_cluster</title>
<path fill="none" stroke="black" d="M2465.42,-34C2471.08,-34 2479.89,-34 2489.64,-34"/>
<polygon fill="black" stroke="black" points="2489.4,-37.5 2499.4,-34 2489.4,-30.5 2489.4,-37.5"/>
</g>
<!-- summary_statistics_processing.catalog_sumstats_window_clumping -->
<g id="node16" class="node">
<title>summary_statistics_processing.catalog_sumstats_window_clumping</title>
<path fill="#ffffff" stroke="#000000" d="M2008.45,-52C2008.45,-52 1814.7,-52 1814.7,-52 1808.7,-52 1802.7,-46 1802.7,-40 1802.7,-40 1802.7,-28 1802.7,-28 1802.7,-22 1808.7,-16 1814.7,-16 1814.7,-16 2008.45,-16 2008.45,-16 2014.45,-16 2020.45,-22 2020.45,-28 2020.45,-28 2020.45,-40 2020.45,-40 2020.45,-46 2014.45,-52 2008.45,-52"/>
<text text-anchor="middle" x="1911.57" y="-28.95" font-family="Times,serif" font-size="14.00">catalog_sumstats_window_clumping</text>
</g>
<!-- summary_statistics_processing.catalog_sumstats_inclusion_list&#45;&gt;summary_statistics_processing.catalog_sumstats_window_clumping -->
<g id="edge10" class="edge">
<title>summary_statistics_processing.catalog_sumstats_inclusion_list&#45;&gt;summary_statistics_processing.catalog_sumstats_window_clumping</title>
<path fill="none" stroke="black" d="M1767.17,-34C1775,-34 1782.98,-34 1790.97,-34"/>
<polygon fill="black" stroke="black" points="1790.74,-37.5 1800.74,-34 1790.74,-30.5 1790.74,-37.5"/>
</g>
<!-- summary_statistics_processing.catalog_sumstats_ld_clumping -->
<g id="node14" class="node">
<title>summary_statistics_processing.catalog_sumstats_ld_clumping</title>
<path fill="#ffffff" stroke="#000000" d="M2229.2,-52C2229.2,-52 2068.45,-52 2068.45,-52 2062.45,-52 2056.45,-46 2056.45,-40 2056.45,-40 2056.45,-28 2056.45,-28 2056.45,-22 2062.45,-16 2068.45,-16 2068.45,-16 2229.2,-16 2229.2,-16 2235.2,-16 2241.2,-22 2241.2,-28 2241.2,-28 2241.2,-40 2241.2,-40 2241.2,-46 2235.2,-52 2229.2,-52"/>
<text text-anchor="middle" x="2148.82" y="-28.95" font-family="Times,serif" font-size="14.00">catalog_sumstats_ld_clumping</text>
</g>
<!-- summary_statistics_processing.catalog_sumstats_pics -->
<g id="node15" class="node">
<title>summary_statistics_processing.catalog_sumstats_pics</title>
<path fill="#ffffff" stroke="#000000" d="M2402.7,-52C2402.7,-52 2289.2,-52 2289.2,-52 2283.2,-52 2277.2,-46 2277.2,-40 2277.2,-40 2277.2,-28 2277.2,-28 2277.2,-22 2283.2,-16 2289.2,-16 2289.2,-16 2402.7,-16 2402.7,-16 2408.7,-16 2414.7,-22 2414.7,-28 2414.7,-28 2414.7,-40 2414.7,-40 2414.7,-46 2408.7,-52 2402.7,-52"/>
<text text-anchor="middle" x="2345.95" y="-28.95" font-family="Times,serif" font-size="14.00">catalog_sumstats_pics</text>
</g>
<!-- summary_statistics_processing.catalog_sumstats_ld_clumping&#45;&gt;summary_statistics_processing.catalog_sumstats_pics -->
<g id="edge11" class="edge">
<title>summary_statistics_processing.catalog_sumstats_ld_clumping&#45;&gt;summary_statistics_processing.catalog_sumstats_pics</title>
<path fill="none" stroke="black" d="M2241.67,-34C2249.64,-34 2257.66,-34 2265.52,-34"/>
<polygon fill="black" stroke="black" points="2265.38,-37.5 2275.38,-34 2265.38,-30.5 2265.38,-37.5"/>
</g>
<!-- summary_statistics_processing.catalog_sumstats_pics&#45;&gt;summary_statistics_processing.downstream_join_id -->
<g id="edge12" class="edge">
<title>summary_statistics_processing.catalog_sumstats_pics&#45;&gt;summary_statistics_processing.downstream_join_id</title>
<path fill="none" stroke="black" d="M2415.02,-34C2423.79,-34 2432.09,-34 2438.96,-34"/>
<polygon fill="black" stroke="black" points="2438.91,-37.5 2448.91,-34 2438.91,-30.5 2438.91,-37.5"/>
</g>
<!-- summary_statistics_processing.catalog_sumstats_window_clumping&#45;&gt;summary_statistics_processing.catalog_sumstats_ld_clumping -->
<g id="edge13" class="edge">
<title>summary_statistics_processing.catalog_sumstats_window_clumping&#45;&gt;summary_statistics_processing.catalog_sumstats_ld_clumping</title>
<path fill="none" stroke="black" d="M2020.9,-34C2028.84,-34 2036.84,-34 2044.75,-34"/>
<polygon fill="black" stroke="black" points="2044.74,-37.5 2054.74,-34 2044.74,-30.5 2044.74,-37.5"/>
</g>
<!-- uploader&#45;&gt;curation_processing.upstream_join_id -->
<g id="edge16" class="edge">
<title>uploader&#45;&gt;curation_processing.upstream_join_id</title>
<path fill="none" stroke="black" d="M541.26,-34C549.5,-34 558.12,-34 565.39,-34"/>
<polygon fill="black" stroke="black" points="565.13,-37.5 575.13,-34 565.13,-30.5 565.13,-37.5"/>
</g>
</g>
</svg>
