<?xml version="1.0" encoding="UTF-8" standalone="no"?>
<!DOCTYPE svg PUBLIC "-//W3C//DTD SVG 1.1//EN"
 "http://www.w3.org/Graphics/SVG/1.1/DTD/svg11.dtd">
<!-- Generated by graphviz version 11.0.0 (20240428.1522)
 -->
<!-- Title: gwas_curation_update Pages: 1 -->
<svg width="483pt" height="69pt"
 viewBox="0.00 0.00 482.75 68.50" xmlns="http://www.w3.org/2000/svg" xmlns:xlink="http://www.w3.org/1999/xlink">
<g id="graph0" class="graph" transform="scale(1 1) rotate(0) translate(4 64.5)">
<title>gwas_curation_update</title>
<polygon fill="white" stroke="none" points="-4,4 -4,-64.5 478.75,-64.5 478.75,4 -4,4"/>
<text text-anchor="middle" x="237.38" y="-43.2" font-family="Times,serif" font-size="14.00">gwas_curation_update</text>
<!-- create_cluster -->
<g id="node1" class="node">
<title>create_cluster</title>
<path fill="#ffffff" stroke="#000000" d="M79,-36C79,-36 12,-36 12,-36 6,-36 0,-30 0,-24 0,-24 0,-12 0,-12 0,-6 6,0 12,0 12,0 79,0 79,0 85,0 91,-6 91,-12 91,-12 91,-24 91,-24 91,-30 85,-36 79,-36"/>
<text text-anchor="middle" x="45.5" y="-12.95" font-family="Times,serif" font-size="14.00">create_cluster</text>
</g>
<!-- install_dependencies -->
<g id="node3" class="node">
<title>install_dependencies</title>
<path fill="#ffffff" stroke="#000000" d="M243.5,-36C243.5,-36 139,-36 139,-36 133,-36 127,-30 127,-24 127,-24 127,-12 127,-12 127,-6 133,0 139,0 139,0 243.5,0 243.5,0 249.5,0 255.5,-6 255.5,-12 255.5,-12 255.5,-24 255.5,-24 255.5,-30 249.5,-36 243.5,-36"/>
<text text-anchor="middle" x="191.25" y="-12.95" font-family="Times,serif" font-size="14.00">install_dependencies</text>
</g>
<!-- create_cluster&#45;&gt;install_dependencies -->
<g id="edge1" class="edge">
<title>create_cluster&#45;&gt;install_dependencies</title>
<path fill="none" stroke="black" d="M91.2,-18C98.9,-18 107.1,-18 115.34,-18"/>
<polygon fill="black" stroke="black" points="115.07,-21.5 125.07,-18 115.07,-14.5 115.07,-21.5"/>
</g>
<!-- gwas_catalog_curation_update -->
<g id="node2" class="node">
<title>gwas_catalog_curation_update</title>
<path fill="#ffffff" stroke="#000000" d="M462.75,-36C462.75,-36 303.5,-36 303.5,-36 297.5,-36 291.5,-30 291.5,-24 291.5,-24 291.5,-12 291.5,-12 291.5,-6 297.5,0 303.5,0 303.5,0 462.75,0 462.75,0 468.75,0 474.75,-6 474.75,-12 474.75,-12 474.75,-24 474.75,-24 474.75,-30 468.75,-36 462.75,-36"/>
<text text-anchor="middle" x="383.12" y="-12.95" font-family="Times,serif" font-size="14.00">gwas_catalog_curation_update</text>
</g>
<!-- install_dependencies&#45;&gt;gwas_catalog_curation_update -->
<g id="edge2" class="edge">
<title>install_dependencies&#45;&gt;gwas_catalog_curation_update</title>
<path fill="none" stroke="black" d="M255.74,-18C263.6,-18 271.78,-18 280.03,-18"/>
<polygon fill="black" stroke="black" points="279.79,-21.5 289.79,-18 279.79,-14.5 279.79,-21.5"/>
</g>
</g>
</svg>
